<?xml version="1.0" encoding="UTF-8"?>
<svg xmlns="http://www.w3.org/2000/svg" xmlns:xlink="http://www.w3.org/1999/xlink" width="200px" height="px" viewBox="0 0 200 208" version="1.1">
<g id="surface1">
<path style=" stroke:none;fill-rule:nonzero;fill:rgb(100%,100%,100%);fill-opacity:1;" d="M 141.957031 127.746094 C 141.996094 125.675781 142.039062 123.589844 142.070312 123.105469 C 142.097656 122.621094 142.144531 117.988281 142.179688 112.804688 C 142.246094 102.492188 142.246094 102.640625 141.695312 101.511719 C 141.351562 100.785156 140.980469 100.625 139.609375 100.5625 L 138.535156 100.503906 L 138.527344 99.863281 L 138.507812 99.21875 L 140.578125 99.304688 C 142.84375 99.394531 146.609375 99.367188 147.222656 99.246094 C 147.4375 99.210938 147.714844 99.199219 147.828125 99.21875 L 148.042969 99.257812 L 147.96875 100.765625 C 147.929688 101.59375 147.914062 104.53125 147.921875 107.289062 L 147.949219 112.292969 L 148.414062 111.957031 C 149.019531 111.519531 150.019531 111.046875 150.894531 110.804688 C 151.789062 110.542969 154.042969 110.449219 155.453125 110.605469 C 158.203125 110.925781 159.953125 111.660156 161.265625 113.046875 C 162.058594 113.898438 162.527344 114.773438 162.890625 116.105469 C 163.121094 116.972656 163.132812 117.113281 163.167969 120.160156 C 163.195312 122.785156 163.179688 123.476562 163.046875 124.242188 C 162.433594 127.929688 160.195312 130.28125 156.5625 131.082031 C 156.179688 131.164062 155.265625 131.25 154.519531 131.277344 C 152.058594 131.371094 149.253906 130.855469 147.464844 129.992188 C 146.941406 129.738281 146.46875 129.535156 146.410156 129.535156 C 146.355469 129.535156 145.816406 129.765625 145.21875 130.054688 C 143.71875 130.78125 142.125 131.492188 141.996094 131.492188 C 141.917969 131.492188 141.910156 130.523438 141.957031 127.746094 Z M 154.042969 129.664062 C 155.285156 129.308594 156.152344 128.332031 156.644531 126.71875 C 157.09375 125.292969 157.175781 124.25 157.175781 120.261719 C 157.175781 116.71875 157.167969 116.496094 156.972656 115.722656 C 156.699219 114.671875 156.394531 114.066406 155.796875 113.429688 C 155.238281 112.851562 154.902344 112.65625 154.054688 112.441406 C 152.097656 111.957031 150.707031 112.265625 149.644531 113.402344 C 148.917969 114.1875 148.414062 115.351562 148.089844 117.019531 C 147.921875 117.886719 147.902344 118.359375 147.902344 121.519531 C 147.902344 124.714844 147.921875 125.144531 148.097656 126.058594 C 148.433594 127.828125 149.039062 129.023438 149.804688 129.414062 C 150.1875 129.609375 152.367188 129.90625 153.027344 129.851562 C 153.308594 129.824219 153.765625 129.738281 154.042969 129.664062 Z M 154.042969 129.664062 "/>
<path style=" stroke:none;fill-rule:nonzero;fill:rgb(100%,100%,100%);fill-opacity:1;" d="M 53.132812 131.25 C 52.023438 131.101562 50.773438 130.699219 49.980469 130.269531 C 49.265625 129.871094 48.023438 128.613281 47.660156 127.902344 C 46.328125 125.359375 45.9375 120.820312 46.730469 116.945312 C 47.382812 113.710938 49.058594 111.726562 51.929688 110.773438 C 54.632812 109.871094 59.039062 109.832031 61.976562 110.683594 C 64.714844 111.464844 67.019531 113.578125 67.511719 115.75 C 67.761719 116.859375 67.96875 120.027344 67.914062 121.890625 C 67.835938 124.445312 67.511719 126.011719 66.746094 127.578125 C 66.039062 129.03125 64.78125 130.140625 63.207031 130.71875 C 61.714844 131.265625 61.183594 131.324219 57.503906 131.359375 C 54.902344 131.378906 53.878906 131.351562 53.132812 131.25 Z M 58.917969 129.804688 C 60.214844 129.375 61.035156 128.472656 61.453125 127.007812 C 61.84375 125.675781 61.890625 125.078125 61.949219 121.527344 C 62.023438 115.890625 61.769531 114.242188 60.605469 112.945312 C 60.082031 112.367188 59.644531 112.125 58.667969 111.910156 C 57.34375 111.605469 55.535156 111.742188 54.546875 112.210938 C 53.792969 112.574219 53.074219 113.496094 52.75 114.53125 C 52.367188 115.714844 52.265625 116.765625 52.21875 119.878906 C 52.164062 123.058594 52.253906 124.78125 52.5625 126.253906 C 53.019531 128.507812 54.082031 129.636719 56.085938 130 C 56.777344 130.128906 58.277344 130.027344 58.917969 129.804688 Z M 58.917969 129.804688 "/>
<path style=" stroke:none;fill-rule:nonzero;fill:rgb(100%,100%,100%);fill-opacity:1;" d="M 122.179688 131.296875 C 118.0625 130.78125 116.113281 128.863281 115.320312 124.546875 C 115.105469 123.375 115.070312 119.238281 115.265625 117.976562 C 115.9375 113.683594 117.707031 111.53125 121.378906 110.578125 C 122.824219 110.195312 123.753906 110.105469 125.910156 110.113281 C 129.1875 110.113281 131.417969 110.617188 133.085938 111.726562 C 134.445312 112.628906 135.386719 113.664062 135.9375 114.867188 C 136.320312 115.6875 136.46875 116.710938 136.617188 119.46875 C 136.886719 124.632812 135.972656 127.988281 133.839844 129.65625 C 132.75 130.511719 131.472656 131.015625 129.730469 131.257812 C 128.601562 131.40625 123.328125 131.445312 122.179688 131.296875 Z M 127.445312 129.878906 C 128.929688 129.46875 129.824219 128.460938 130.28125 126.683594 C 130.652344 125.21875 130.707031 124.417969 130.707031 120.679688 C 130.707031 115.976562 130.511719 114.625 129.691406 113.382812 C 129.085938 112.472656 128.566406 112.144531 127.289062 111.882812 C 125.878906 111.59375 123.988281 111.789062 123.09375 112.320312 C 121.9375 113.003906 121.304688 114.363281 121.0625 116.691406 C 120.941406 117.875 120.941406 123.867188 121.0625 124.875 C 121.480469 128.203125 122.488281 129.570312 124.835938 130 C 125.433594 130.101562 126.839844 130.039062 127.445312 129.878906 Z M 127.445312 129.878906 "/>
<path style=" stroke:none;fill-rule:nonzero;fill:rgb(100%,100%,100%);fill-opacity:1;" d="M 171.480469 131.109375 C 170.09375 130.847656 169.097656 130.324219 168.15625 129.394531 C 167.128906 128.371094 166.550781 126.972656 166.542969 125.5 C 166.542969 124.605469 166.820312 122.910156 167.0625 122.378906 C 167.539062 121.316406 168.6875 120.355469 170.039062 119.890625 C 171.40625 119.421875 172.085938 119.359375 176.046875 119.292969 L 179.824219 119.238281 L 179.8125 116.859375 C 179.8125 114.875 179.785156 114.390625 179.644531 113.933594 C 179.347656 112.917969 178.703125 112.21875 177.855469 111.957031 C 177.007812 111.707031 174.910156 111.875 174.183594 112.246094 C 173.8125 112.441406 173.28125 113.078125 173.148438 113.476562 C 173.09375 113.671875 173.019531 114.464844 172.980469 115.238281 C 172.917969 116.777344 172.890625 116.878906 172.339844 117.113281 C 171.902344 117.289062 169.960938 117.382812 169.449219 117.242188 C 168.898438 117.09375 168.75 116.824219 168.703125 115.890625 C 168.582031 113.664062 169.421875 112.003906 171.054688 111.230469 C 172.375 110.597656 173.632812 110.394531 176.328125 110.394531 C 178.488281 110.394531 179.300781 110.46875 180.660156 110.820312 C 183.09375 111.445312 184.695312 112.992188 185.238281 115.230469 C 185.378906 115.789062 185.40625 116.71875 185.453125 121.800781 C 185.507812 128.050781 185.5 127.867188 185.972656 128.582031 C 186.320312 129.105469 186.738281 129.28125 187.820312 129.328125 L 188.722656 129.367188 L 188.722656 130.558594 L 184.203125 130.539062 L 179.683594 130.523438 L 179.683594 129.796875 C 179.683594 129.394531 179.664062 129.066406 179.636719 129.066406 C 179.609375 129.066406 179.347656 129.234375 179.066406 129.449219 C 177.464844 130.632812 175.441406 131.222656 173.074219 131.203125 C 172.433594 131.191406 171.714844 131.15625 171.480469 131.109375 Z M 177.046875 129.199219 C 177.914062 129.023438 178.367188 128.796875 178.84375 128.324219 C 179.683594 127.484375 179.777344 127.035156 179.839844 123.597656 L 179.898438 120.785156 L 179.636719 120.71875 C 179.199219 120.605469 176.246094 120.753906 175.636719 120.914062 C 174.371094 121.25 173.179688 122.144531 172.695312 123.132812 C 172.003906 124.558594 172.132812 127.148438 172.964844 128.292969 C 173.28125 128.734375 173.773438 129.058594 174.371094 129.21875 C 174.96875 129.386719 176.214844 129.375 177.046875 129.199219 Z M 177.046875 129.199219 "/>
<path style=" stroke:none;fill-rule:nonzero;fill:rgb(100%,100%,100%);fill-opacity:1;" d="M 26.046875 131.054688 C 23.429688 130.828125 20.902344 130.160156 18.898438 129.160156 C 16.367188 127.894531 14.324219 125.816406 13.101562 123.253906 C 11.351562 119.570312 10.886719 114.855469 11.660156 108.519531 C 12.226562 103.839844 12.609375 102.183594 13.53125 100.320312 C 14.175781 99.023438 14.714844 98.242188 15.703125 97.207031 C 18.398438 94.363281 22.003906 92.882812 27.914062 92.203125 C 29.953125 91.960938 34.902344 91.960938 36.207031 92.191406 C 37.820312 92.480469 39.992188 93.125 42.300781 94.011719 L 43.179688 94.34375 L 43.101562 95.230469 C 43.066406 95.726562 43.011719 97.429688 42.972656 99.015625 C 42.90625 102.21875 42.890625 102.332031 42.292969 102.453125 C 41.835938 102.546875 39.273438 102.519531 39.011719 102.414062 C 38.582031 102.257812 38.472656 101.929688 38.339844 100.523438 C 38.191406 98.996094 38.117188 98.613281 37.679688 97.335938 C 36.941406 95.210938 36.308594 94.625 34.203125 94.121094 C 33.382812 93.925781 33.1875 93.917969 31.5 93.972656 C 29.003906 94.054688 27.429688 94.289062 25.992188 94.785156 C 23.402344 95.667969 21.527344 97.476562 20.429688 100.132812 C 19.824219 101.605469 19.449219 103.171875 19.066406 105.816406 C 18.582031 109.171875 18.5 110.289062 18.5 113.644531 C 18.507812 117.082031 18.621094 118.277344 19.152344 120.355469 C 20.121094 124.175781 22.03125 126.671875 25.03125 128.023438 C 26.804688 128.824219 29.671875 129.085938 32.246094 128.695312 C 35.097656 128.265625 37.148438 127.269531 37.792969 125.992188 C 38.144531 125.292969 38.230469 124.640625 38.292969 122.3125 C 38.339844 120.511719 38.386719 120.019531 38.507812 119.796875 C 38.882812 119.097656 39.496094 118.882812 41.191406 118.875 C 42.582031 118.863281 42.878906 118.957031 43.058594 119.433594 C 43.113281 119.570312 43.148438 121.4375 43.148438 123.925781 L 43.140625 128.183594 L 42.515625 128.480469 C 39.535156 129.90625 37.046875 130.539062 32.890625 130.933594 C 31.0625 131.101562 27.363281 131.164062 26.046875 131.054688 Z M 26.046875 131.054688 "/>
<path style=" stroke:none;fill-rule:nonzero;fill:rgb(100%,100%,100%);fill-opacity:1;" d="M 96.644531 131.015625 C 94.808594 130.839844 92.785156 130.128906 91.796875 129.300781 C 89.878906 127.707031 88.945312 124.921875 88.84375 120.496094 C 88.789062 118.191406 88.882812 117.363281 89.328125 115.964844 C 90.113281 113.476562 92.359375 111.316406 94.882812 110.589844 C 95.835938 110.316406 96.597656 110.226562 97.949219 110.234375 C 100.335938 110.242188 102.050781 110.726562 103.46875 111.800781 C 103.8125 112.0625 104.109375 112.257812 104.136719 112.21875 C 104.222656 112.144531 104.195312 104.707031 104.109375 103.980469 C 104.074219 103.628906 104.082031 103.308594 104.121094 103.273438 C 104.164062 103.226562 104.183594 101.6875 104.175781 99.84375 L 104.148438 96.5 L 103.589844 96.332031 C 103.28125 96.226562 101.5 95.667969 99.628906 95.082031 C 97.753906 94.496094 95.851562 93.898438 95.386719 93.75 C 93.988281 93.3125 88.265625 91.476562 85.789062 90.675781 C 78.992188 88.472656 75.757812 87.550781 72.179688 86.816406 C 65.628906 85.472656 61.324219 85.546875 58.324219 87.046875 C 55.648438 88.382812 54.242188 89.929688 53.625 92.210938 C 53.011719 94.511719 53.960938 98.121094 55.636719 99.816406 C 56.785156 100.980469 58.003906 101.324219 60.25 101.121094 C 60.902344 101.066406 61.472656 101.046875 61.519531 101.074219 C 61.734375 101.203125 61.351562 102.601562 60.875 103.441406 C 60.234375 104.570312 58.472656 106.648438 57.753906 107.121094 C 57.230469 107.464844 56.328125 107.726562 55.621094 107.726562 C 54.910156 107.726562 54.984375 107.523438 56.273438 105.835938 C 57.09375 104.753906 57.410156 104.101562 57.472656 103.347656 L 57.53125 102.816406 L 56.792969 102.75 C 54.613281 102.566406 52.507812 101.671875 51.222656 100.394531 C 48.460938 97.652344 48.425781 93.394531 51.136719 89.855469 C 52.339844 88.289062 54.195312 86.925781 56.261719 86.097656 C 58.808594 85.082031 61.734375 84.671875 64.929688 84.878906 C 71.175781 85.277344 80.492188 87.253906 93.710938 90.960938 C 97.941406 92.15625 98.257812 92.238281 100.605469 92.855469 C 101.890625 93.191406 103.222656 93.515625 103.578125 93.582031 C 104.453125 93.738281 104.425781 93.785156 104.929688 91.417969 C 105.433594 89.082031 106.105469 87.308594 107.140625 85.613281 C 109.917969 81.054688 115.648438 77.703125 122.367188 76.6875 C 124.296875 76.398438 127.410156 76.386719 129.078125 76.675781 C 133.121094 77.367188 135.878906 78.933594 137.0625 81.222656 C 137.6875 82.417969 137.882812 83.292969 137.867188 84.894531 C 137.855469 86.535156 137.613281 87.597656 136.90625 89.042969 C 134.773438 93.433594 129.644531 96.480469 122.367188 97.699219 C 119.589844 98.167969 118.546875 98.195312 111.875 97.980469 L 110.09375 97.925781 L 110.039062 98.136719 C 109.945312 98.539062 109.878906 100.011719 109.832031 102.601562 C 109.757812 107.253906 109.785156 126.308594 109.871094 126.925781 C 110.074219 128.519531 110.746094 129.160156 112.386719 129.320312 L 113.160156 129.394531 L 113.179688 129.980469 C 113.1875 130.492188 113.167969 130.558594 113 130.578125 C 112.898438 130.597656 110.875 130.605469 108.507812 130.605469 L 104.195312 130.605469 L 104.195312 128.566406 L 103.800781 128.9375 C 103.222656 129.488281 102.832031 129.757812 102.085938 130.128906 C 101.257812 130.539062 100.007812 130.894531 98.976562 131.023438 C 98.097656 131.128906 97.914062 131.128906 96.644531 131.015625 Z M 100.539062 129.199219 C 101.546875 129.003906 102.132812 128.6875 102.722656 128.050781 C 104.027344 126.65625 104.230469 125.394531 104.175781 119.441406 L 104.136719 115.882812 L 103.738281 114.6875 C 103.476562 113.933594 103.214844 113.355469 103.019531 113.085938 C 102.488281 112.394531 101.265625 111.921875 99.992188 111.921875 C 99.199219 111.921875 97.828125 112.199219 97.230469 112.488281 C 96.542969 112.816406 95.777344 113.617188 95.394531 114.390625 C 94.742188 115.734375 94.613281 117.101562 94.695312 121.707031 C 94.753906 124.257812 94.789062 124.875 94.949219 125.601562 C 95.191406 126.671875 95.574219 127.53125 96.085938 128.082031 C 96.617188 128.65625 96.960938 128.855469 97.820312 129.058594 C 99.113281 129.375 99.550781 129.402344 100.539062 129.199219 Z M 122.738281 96.589844 C 125.554688 96.191406 127.996094 95.285156 129.851562 93.953125 C 132.664062 91.933594 134.269531 88.71875 134.082031 85.464844 C 134 83.925781 133.570312 82.59375 132.757812 81.34375 C 131.175781 78.894531 128.203125 77.441406 124.789062 77.441406 C 120.242188 77.441406 116.085938 80.003906 113.300781 84.523438 C 112.023438 86.609375 110.921875 89.554688 110.484375 92.117188 C 110.269531 93.347656 110.113281 95.230469 110.214844 95.324219 C 110.335938 95.4375 111.714844 95.847656 112.722656 96.070312 C 113.820312 96.3125 115.984375 96.621094 117.335938 96.722656 C 118.777344 96.84375 121.425781 96.777344 122.738281 96.589844 Z M 122.738281 96.589844 "/>
<path style=" stroke:none;fill-rule:nonzero;fill:rgb(100%,100%,100%);fill-opacity:1;" d="M 69.804688 130.074219 L 69.804688 129.46875 L 70.765625 129.421875 C 72.46875 129.328125 73.101562 128.863281 73.335938 127.53125 C 73.476562 126.71875 73.550781 120.011719 73.457031 116.535156 C 73.390625 113.765625 73.375 113.523438 73.1875 113.179688 C 72.75 112.351562 72.078125 112.003906 70.78125 111.929688 L 69.851562 111.875 L 69.824219 111.257812 L 69.796875 110.652344 L 74.613281 110.652344 L 79.421875 110.664062 L 79.386719 111.53125 L 79.339844 112.394531 L 79.738281 111.96875 C 80.335938 111.351562 81.136719 110.867188 82.078125 110.5625 C 82.777344 110.328125 83.046875 110.289062 83.921875 110.289062 C 84.835938 110.289062 85.003906 110.316406 85.460938 110.53125 C 86.925781 111.222656 87.578125 112.433594 87.671875 114.671875 C 87.753906 116.515625 87.558594 116.8125 86.160156 116.980469 C 85.136719 117.113281 83.941406 116.972656 83.652344 116.683594 C 83.476562 116.507812 83.449219 116.347656 83.410156 115.109375 C 83.347656 113.578125 83.234375 113.1875 82.730469 112.835938 C 82.199219 112.453125 80.933594 112.515625 80.328125 112.957031 C 79.886719 113.261719 79.523438 114.167969 79.308594 115.433594 C 79.125 116.507812 79.113281 116.878906 79.144531 121.957031 L 79.171875 127.34375 L 79.394531 127.902344 C 79.804688 128.9375 80.457031 129.300781 82.039062 129.414062 L 82.851562 129.46875 L 82.851562 130.671875 L 80.597656 130.605469 C 78.097656 130.523438 74.59375 130.53125 71.695312 130.625 L 69.804688 130.679688 Z M 69.804688 130.074219 "/>
</g>
</svg>
