<?xml version="1.0" encoding="UTF-8"?>
<svg xmlns="http://www.w3.org/2000/svg" xmlns:xlink="http://www.w3.org/1999/xlink" width="200px" height="px" viewBox="0 0 200 126" version="1.1">
<g id="surface1">
<path style=" stroke:none;fill-rule:nonzero;fill:rgb(100%,100%,100%);fill-opacity:1;" d="M 188.695312 0 C 188.695312 0.144531 188.695312 0.289062 188.695312 0.4375 C 188.867188 0.472656 189.035156 0.507812 189.210938 0.546875 C 189.78125 0.871094 189.78125 0.871094 190.03125 1.609375 C 190.285156 2.761719 190.28125 3.90625 190.285156 5.082031 C 190.285156 5.449219 190.285156 5.449219 190.289062 5.824219 C 190.292969 6.640625 190.296875 7.457031 190.300781 8.273438 C 190.304688 8.859375 190.308594 9.445312 190.3125 10.03125 C 190.320312 11.292969 190.324219 12.554688 190.332031 13.816406 C 190.339844 15.640625 190.347656 17.464844 190.359375 19.292969 C 190.378906 22.253906 190.394531 25.21875 190.410156 28.183594 C 190.414062 28.359375 190.414062 28.539062 190.414062 28.71875 C 190.421875 30.160156 190.429688 31.597656 190.4375 33.035156 C 190.445312 34.292969 190.449219 35.550781 190.457031 36.808594 C 190.457031 36.984375 190.460938 37.160156 190.460938 37.34375 C 190.476562 40.296875 190.492188 43.25 190.511719 46.203125 C 190.523438 48.023438 190.53125 49.84375 190.542969 51.664062 C 190.546875 52.914062 190.554688 54.160156 190.5625 55.40625 C 190.566406 56.128906 190.570312 56.847656 190.574219 57.566406 C 190.574219 58.347656 190.582031 59.125 190.585938 59.90625 C 190.585938 60.132812 190.585938 60.359375 190.585938 60.59375 C 190.597656 61.765625 190.660156 62.773438 191.085938 63.871094 C 192 64.582031 192.921875 64.640625 194.042969 64.601562 C 194.824219 64.488281 195.292969 64.1875 195.871094 63.652344 C 196.078125 63.042969 196.121094 62.460938 196.140625 61.820312 C 196.148438 61.640625 196.15625 61.460938 196.160156 61.277344 C 196.175781 60.898438 196.1875 60.523438 196.199219 60.148438 C 196.207031 59.964844 196.214844 59.785156 196.222656 59.601562 C 196.226562 59.4375 196.234375 59.273438 196.238281 59.105469 C 196.3125 58.578125 196.460938 58.222656 196.738281 57.769531 C 197.164062 57.539062 197.164062 57.539062 197.664062 57.386719 C 197.824219 57.332031 197.988281 57.28125 198.15625 57.226562 C 198.78125 57.097656 199.363281 57.105469 200 57.113281 C 199.949219 58.003906 199.894531 58.898438 199.839844 59.789062 C 199.820312 60.089844 199.800781 60.394531 199.785156 60.695312 C 199.582031 64.175781 199.191406 66.78125 196.554688 69.246094 C 193.601562 71.585938 189.65625 72.808594 185.886719 72.675781 C 184.09375 72.453125 182.726562 71.519531 181.523438 70.195312 C 179.824219 68.003906 180.402344 64.277344 180.394531 61.636719 C 180.390625 61.265625 180.390625 60.898438 180.386719 60.53125 C 180.382812 59.742188 180.382812 58.957031 180.378906 58.167969 C 180.375 56.914062 180.367188 55.65625 180.363281 54.402344 C 180.347656 51.953125 180.339844 49.503906 180.328125 47.054688 C 180.316406 43.960938 180.300781 40.867188 180.289062 37.773438 C 180.28125 36.734375 180.277344 35.695312 180.273438 34.65625 C 180.265625 31.96875 180.246094 29.28125 180.21875 26.59375 C 180.214844 26.28125 180.214844 26.28125 180.210938 25.964844 C 180.195312 24.675781 180.179688 23.386719 180.15625 22.097656 C 180.148438 21.6875 180.144531 21.277344 180.136719 20.871094 C 180.132812 20.308594 180.121094 19.742188 180.109375 19.179688 C 180.109375 19.011719 180.105469 18.84375 180.105469 18.671875 C 180.085938 17.789062 180.085938 17.789062 179.699219 17.015625 C 178.699219 16.359375 177.460938 16.304688 176.316406 16.484375 C 175.601562 16.808594 175.339844 16.953125 175 17.65625 C 174.777344 18.867188 174.746094 20.042969 174.742188 21.265625 C 174.738281 21.46875 174.738281 21.671875 174.734375 21.882812 C 174.730469 22.320312 174.730469 22.761719 174.726562 23.199219 C 174.722656 23.898438 174.714844 24.59375 174.710938 25.289062 C 174.695312 26.769531 174.683594 28.25 174.675781 29.730469 C 174.660156 31.441406 174.648438 33.15625 174.632812 34.871094 C 174.625 35.554688 174.621094 36.238281 174.617188 36.921875 C 174.613281 37.34375 174.609375 37.765625 174.605469 38.1875 C 174.605469 38.378906 174.605469 38.566406 174.605469 38.757812 C 174.589844 39.949219 174.496094 41.109375 174.347656 42.289062 C 172.496094 43.09375 170.621094 43.796875 168.710938 44.441406 C 168.449219 44.535156 168.191406 44.625 167.925781 44.71875 C 167.675781 44.800781 167.425781 44.886719 167.167969 44.972656 C 166.945312 45.050781 166.722656 45.125 166.492188 45.203125 C 165.832031 45.351562 165.425781 45.308594 164.78125 45.125 C 164.726562 44.835938 164.726562 44.835938 164.671875 44.542969 C 164.617188 44.289062 164.566406 44.035156 164.511719 43.777344 C 164.433594 43.398438 164.433594 43.398438 164.359375 43.015625 C 164.070312 42.09375 163.644531 41.46875 162.851562 40.914062 C 162.214844 40.707031 161.757812 40.683594 161.085938 40.765625 C 159.605469 41.539062 158.71875 42.847656 157.71875 44.144531 C 157.585938 44.308594 157.457031 44.476562 157.324219 44.648438 C 157.105469 44.933594 156.886719 45.21875 156.675781 45.511719 C 152.792969 50.574219 143.265625 53.441406 137.175781 54.28125 C 134.746094 54.5 132.539062 54.515625 130.527344 52.984375 C 128.601562 51.332031 126.914062 49.453125 126.523438 46.867188 C 126.484375 46.148438 126.476562 45.429688 126.46875 44.707031 C 126.460938 44.277344 126.453125 43.84375 126.445312 43.414062 C 126.4375 42.738281 126.425781 42.0625 126.417969 41.386719 C 126.570312 37.421875 126.570312 37.421875 125.433594 33.75 C 124.738281 33.113281 124.167969 33.019531 123.222656 33.03125 C 121.269531 33.359375 119.414062 34.683594 117.886719 35.886719 C 117.28125 36.253906 116.792969 36.351562 116.085938 36.40625 C 114.53125 35.660156 113.207031 34.128906 112.164062 32.777344 C 111.4375 31.898438 110.460938 31.246094 109.308594 31.121094 C 108.285156 31.207031 107.644531 31.519531 106.957031 32.261719 C 106.207031 33.300781 105.609375 34.386719 105.699219 35.699219 C 106.089844 36.820312 107.132812 37.460938 108.042969 38.148438 C 108.300781 38.347656 108.558594 38.546875 108.816406 38.746094 C 110.058594 39.695312 111.320312 40.617188 112.578125 41.542969 C 120.171875 47.117188 120.171875 47.117188 120.871094 50.355469 C 120.929688 51.128906 120.929688 51.898438 120.9375 52.671875 C 120.945312 52.878906 120.949219 53.085938 120.957031 53.296875 C 120.976562 55.710938 120.109375 57.546875 118.476562 59.292969 C 115.859375 61.894531 111.949219 62.742188 108.53125 63.851562 C 107.847656 64.074219 107.164062 64.296875 106.476562 64.523438 C 104.15625 65.285156 101.824219 66.015625 99.484375 66.707031 C 99.148438 66.804688 99.148438 66.804688 98.808594 66.90625 C 98.605469 66.964844 98.398438 67.027344 98.1875 67.085938 C 98.007812 67.140625 97.828125 67.191406 97.640625 67.246094 C 97.175781 67.359375 97.175781 67.359375 96.523438 67.359375 C 96.488281 67.136719 96.453125 66.914062 96.417969 66.683594 C 96.367188 66.386719 96.316406 66.089844 96.261719 65.792969 C 96.230469 65.574219 96.230469 65.574219 96.195312 65.347656 C 96 64.25 95.636719 63.707031 94.78125 63 C 94.0625 62.640625 93.378906 62.621094 92.609375 62.78125 C 91.601562 63.394531 90.875 64.273438 90.175781 65.207031 C 86.71875 69.8125 81.972656 72.46875 76.601562 74.253906 C 76.285156 74.363281 75.964844 74.46875 75.644531 74.578125 C 72.765625 75.546875 69.863281 76.441406 66.957031 77.332031 C 66.734375 77.402344 66.511719 77.46875 66.28125 77.539062 C 65.644531 77.734375 65.011719 77.925781 64.375 78.121094 C 64.183594 78.179688 63.992188 78.238281 63.796875 78.296875 C 63.53125 78.375 63.53125 78.375 63.261719 78.457031 C 63.109375 78.503906 62.957031 78.550781 62.796875 78.597656 C 62.390625 78.695312 62.390625 78.695312 61.738281 78.695312 C 61.683594 78.382812 61.683594 78.382812 61.628906 78.066406 C 61.574219 77.792969 61.523438 77.519531 61.46875 77.238281 C 61.417969 76.96875 61.367188 76.695312 61.316406 76.417969 C 61.035156 75.46875 60.625 74.859375 59.835938 74.265625 C 59.089844 74.039062 58.363281 73.925781 57.609375 74.117188 C 56.183594 75.019531 55.515625 76.425781 54.699219 77.863281 C 51.863281 82.839844 51.863281 82.839844 50 83.601562 C 49.203125 83.800781 48.597656 83.757812 47.824219 83.492188 C 46.546875 82.691406 45.457031 81.628906 44.375 80.589844 C 44.089844 80.316406 43.804688 80.046875 43.519531 79.773438 C 43.398438 79.65625 43.273438 79.539062 43.148438 79.414062 C 42.757812 79.070312 42.507812 78.917969 41.980469 78.894531 C 40.5625 78.992188 39.671875 79.394531 38.695312 80.4375 C 34.789062 85.664062 33.871094 91.332031 33.800781 97.695312 C 33.789062 98.507812 33.777344 99.316406 33.765625 100.128906 C 33.742188 101.847656 33.71875 103.570312 33.695312 105.289062 C 33.667969 107.285156 33.644531 109.28125 33.613281 111.277344 C 33.601562 112.074219 33.589844 112.867188 33.582031 113.660156 C 33.484375 121 33.484375 121 31.796875 122.664062 C 31.050781 123.191406 30.394531 123.488281 29.539062 123.792969 C 29.316406 123.871094 29.316406 123.871094 29.09375 123.953125 C 28.773438 124.066406 28.453125 124.179688 28.132812 124.289062 C 27.566406 124.488281 27.007812 124.691406 26.445312 124.894531 C 26.054688 125.039062 25.664062 125.179688 25.273438 125.320312 C 25.085938 125.386719 24.898438 125.453125 24.707031 125.523438 C 24.445312 125.617188 24.445312 125.617188 24.175781 125.710938 C 24.019531 125.769531 23.863281 125.824219 23.703125 125.878906 C 23.261719 126 23.261719 126 22.390625 126 C 22.210938 124.171875 22.140625 122.359375 22.132812 120.523438 C 22.128906 120.113281 22.128906 120.113281 22.128906 119.695312 C 22.125 119.109375 22.121094 118.519531 22.117188 117.933594 C 22.113281 117 22.105469 116.066406 22.101562 115.136719 C 22.085938 112.988281 22.074219 110.84375 22.0625 108.699219 C 22.050781 106.726562 22.039062 104.757812 22.027344 102.789062 C 22.019531 101.863281 22.015625 100.941406 22.011719 100.015625 C 22.007812 99.300781 22.003906 98.589844 21.996094 97.878906 C 21.996094 97.625 21.996094 97.371094 21.996094 97.113281 C 22.050781 94.109375 22.050781 94.109375 21.085938 91.339844 C 21.085938 91.195312 21.085938 91.050781 21.085938 90.902344 C 18.066406 90.601562 15.492188 92.386719 12.921875 93.777344 C 10.226562 95.210938 7.148438 96.832031 4.011719 95.984375 C 2.785156 95.476562 1.449219 94.714844 0.859375 93.476562 C -0.144531 90.503906 0.390625 86.601562 0.375 83.503906 C 0.371094 82.726562 0.367188 81.949219 0.363281 81.171875 C 0.351562 79.355469 0.339844 77.535156 0.328125 75.71875 C 0.3125 73.132812 0.296875 70.546875 0.28125 67.960938 C 0.28125 67.636719 0.277344 67.316406 0.277344 66.992188 C 0.238281 61.433594 0.167969 55.878906 0.0742188 50.320312 C -0.277344 29.695312 -0.277344 29.695312 2.914062 26.0625 C 5.242188 23.785156 7.617188 22.507812 10.664062 21.484375 C 10.90625 21.402344 10.90625 21.402344 11.152344 21.320312 C 14.199219 20.285156 17.273438 19.34375 20.351562 18.421875 C 20.570312 18.355469 20.785156 18.289062 21.003906 18.222656 C 23.089844 17.601562 25.175781 16.988281 27.289062 16.476562 C 27.507812 16.417969 27.507812 16.417969 27.734375 16.363281 C 29.277344 16 30.472656 16.132812 31.871094 16.863281 C 33.847656 18.125 35.441406 19.996094 35.992188 22.308594 C 36.09375 22.929688 36.117188 23.511719 36.121094 24.140625 C 36.125 24.386719 36.125 24.632812 36.128906 24.882812 C 36.128906 25.28125 36.128906 25.28125 36.132812 25.683594 C 36.132812 25.957031 36.132812 26.234375 36.136719 26.515625 C 36.136719 27.09375 36.136719 27.675781 36.140625 28.253906 C 36.140625 28.992188 36.144531 29.726562 36.152344 30.464844 C 36.15625 31.175781 36.15625 31.882812 36.160156 32.59375 C 36.160156 32.855469 36.164062 33.117188 36.167969 33.386719 C 36.160156 35.148438 36.121094 37.070312 34.851562 38.421875 C 32.84375 39.90625 30.035156 40.472656 27.691406 41.171875 C 27.464844 41.242188 27.242188 41.308594 27.011719 41.378906 C 26.796875 41.441406 26.582031 41.503906 26.363281 41.566406 C 26.078125 41.648438 26.078125 41.648438 25.789062 41.734375 C 25.152344 41.867188 24.5625 41.863281 23.914062 41.855469 C 23.910156 41.695312 23.90625 41.539062 23.902344 41.375 C 23.863281 39.886719 23.820312 38.394531 23.777344 36.902344 C 23.753906 36.136719 23.730469 35.371094 23.714844 34.601562 C 23.691406 33.71875 23.664062 32.839844 23.636719 31.957031 C 23.632812 31.683594 23.625 31.410156 23.617188 31.125 C 23.574219 29.757812 23.515625 28.664062 22.824219 27.46875 C 22.109375 26.800781 21.648438 26.613281 20.679688 26.472656 C 17.902344 26.609375 14.328125 28.003906 12.289062 29.882812 C 9.710938 33.109375 10.183594 37.425781 10.1875 41.3125 C 10.1875 41.726562 10.1875 42.140625 10.1875 42.554688 C 10.1875 43.671875 10.1875 44.789062 10.1875 45.902344 C 10.1875 47.078125 10.1875 48.253906 10.1875 49.429688 C 10.1875 51.402344 10.1875 53.375 10.1875 55.347656 C 10.191406 57.621094 10.191406 59.890625 10.1875 62.164062 C 10.1875 64.121094 10.1875 66.082031 10.1875 68.042969 C 10.1875 69.207031 10.1875 70.375 10.1875 71.542969 C 10.1875 72.640625 10.1875 73.738281 10.1875 74.835938 C 10.1875 75.234375 10.1875 75.632812 10.1875 76.03125 C 10.1875 78.035156 10.207031 80.03125 10.285156 82.03125 C 10.292969 82.285156 10.292969 82.285156 10.300781 82.542969 C 10.355469 83.648438 10.566406 84.46875 11.085938 85.453125 C 12.214844 86.132812 13.539062 85.902344 14.78125 85.671875 C 17.429688 84.917969 19.21875 83.292969 20.5625 80.917969 C 22.921875 76.171875 23.261719 70.710938 23.320312 65.5 C 23.324219 65.230469 23.328125 64.957031 23.335938 64.679688 C 23.351562 63.535156 23.367188 62.394531 23.382812 61.25 C 23.390625 60.410156 23.40625 59.570312 23.417969 58.726562 C 23.421875 58.472656 23.421875 58.21875 23.425781 57.957031 C 23.4375 57.238281 23.453125 56.523438 23.476562 55.804688 C 23.484375 55.5625 23.492188 55.316406 23.5 55.066406 C 23.511719 54.832031 23.523438 54.597656 23.535156 54.355469 C 23.546875 54.148438 23.554688 53.9375 23.566406 53.722656 C 23.695312 53.191406 23.695312 53.191406 24.101562 52.808594 C 24.695312 52.460938 25.300781 52.214844 25.945312 51.972656 C 26.078125 51.921875 26.210938 51.871094 26.347656 51.816406 C 26.628906 51.710938 26.910156 51.605469 27.191406 51.5 C 27.617188 51.339844 28.039062 51.179688 28.460938 51.015625 C 30.039062 50.417969 31.621094 49.890625 33.261719 49.484375 C 33.703125 49.925781 33.515625 50.84375 33.519531 51.453125 C 33.523438 51.726562 33.523438 51.726562 33.523438 52.007812 C 33.527344 52.410156 33.53125 52.8125 33.535156 53.210938 C 33.539062 53.847656 33.546875 54.488281 33.550781 55.125 C 33.566406 56.480469 33.574219 57.839844 33.585938 59.199219 C 33.601562 60.761719 33.613281 62.324219 33.628906 63.890625 C 33.632812 64.511719 33.640625 65.132812 33.644531 65.757812 C 33.515625 69.910156 33.515625 69.910156 34.347656 73.898438 C 34.894531 74.347656 35.164062 74.339844 35.871094 74.28125 C 36.457031 74.132812 36.894531 74.019531 37.390625 73.683594 C 37.546875 73.398438 37.691406 73.105469 37.824219 72.808594 C 37.9375 72.578125 38.046875 72.347656 38.164062 72.105469 C 39.207031 69.859375 39.902344 67.601562 40.433594 65.179688 C 40.46875 65.03125 40.503906 64.878906 40.535156 64.726562 C 41.546875 60.046875 41.546875 55.035156 41.644531 50.265625 C 41.714844 47.773438 41.714844 47.773438 42.175781 46.867188 C 42.777344 46.441406 43.433594 46.226562 44.128906 45.996094 C 44.371094 45.914062 44.613281 45.832031 44.859375 45.746094 C 45.539062 45.519531 46.21875 45.304688 46.898438 45.09375 C 47.324219 44.960938 47.75 44.824219 48.175781 44.6875 C 48.582031 44.5625 48.582031 44.5625 48.996094 44.433594 C 49.242188 44.355469 49.488281 44.28125 49.738281 44.199219 C 50.433594 44.035156 51.027344 44.003906 51.738281 44.035156 C 52.015625 44.867188 51.992188 45.652344 51.996094 46.523438 C 52 46.804688 52 46.804688 52.003906 47.089844 C 52.007812 47.496094 52.011719 47.902344 52.011719 48.3125 C 52.019531 48.957031 52.023438 49.605469 52.03125 50.25 C 52.042969 51.625 52.054688 53 52.066406 54.375 C 52.078125 55.964844 52.089844 57.550781 52.105469 59.136719 C 52.113281 59.769531 52.117188 60.402344 52.121094 61.035156 C 52.136719 62.640625 52.148438 64.242188 52.230469 65.84375 C 52.242188 66.035156 52.25 66.226562 52.261719 66.425781 C 52.433594 67.085938 52.75 67.363281 53.261719 67.796875 C 54.101562 68.195312 54.867188 68.246094 55.789062 68.148438 C 57.308594 67.414062 58.039062 65.804688 58.585938 64.265625 C 58.648438 64.09375 58.710938 63.917969 58.777344 63.738281 C 59.320312 62.136719 59.703125 60.511719 60.054688 58.859375 C 60.105469 58.621094 60.15625 58.386719 60.207031 58.144531 C 61.390625 52.210938 61.40625 46.28125 61.414062 40.257812 C 61.417969 39.046875 61.421875 37.832031 61.425781 36.621094 C 61.4375 34.335938 61.441406 32.050781 61.449219 29.761719 C 61.453125 27.15625 61.464844 24.550781 61.472656 21.945312 C 61.492188 16.589844 61.507812 11.238281 61.523438 5.886719 C 62.253906 5.570312 62.988281 5.253906 63.71875 4.9375 C 63.925781 4.847656 64.132812 4.757812 64.34375 4.667969 C 65.707031 4.078125 67.070312 3.527344 68.476562 3.050781 C 68.65625 2.988281 68.832031 2.925781 69.015625 2.863281 C 69.847656 2.578125 70.652344 2.320312 71.523438 2.179688 C 71.703125 2.816406 71.765625 3.378906 71.765625 4.039062 C 71.765625 4.238281 71.765625 4.433594 71.765625 4.640625 C 71.765625 4.855469 71.765625 5.074219 71.765625 5.296875 C 71.765625 5.527344 71.765625 5.757812 71.765625 5.996094 C 71.765625 6.773438 71.761719 7.546875 71.761719 8.324219 C 71.761719 8.878906 71.757812 9.4375 71.757812 9.992188 C 71.757812 11.191406 71.757812 12.390625 71.753906 13.589844 C 71.753906 15.324219 71.75 17.0625 71.75 18.800781 C 71.75 21.628906 71.746094 24.453125 71.742188 27.28125 C 71.742188 27.535156 71.742188 27.535156 71.742188 27.792969 C 71.742188 29.164062 71.738281 30.535156 71.738281 31.90625 C 71.738281 33.097656 71.734375 34.289062 71.734375 35.484375 C 71.734375 35.652344 71.734375 35.820312 71.734375 35.992188 C 71.730469 38.804688 71.730469 41.613281 71.726562 44.425781 C 71.726562 46.15625 71.726562 47.886719 71.722656 49.617188 C 71.71875 50.949219 71.71875 52.28125 71.71875 53.613281 C 71.71875 54.152344 71.71875 54.695312 71.714844 55.238281 C 71.710938 57.703125 71.714844 60.160156 71.828125 62.621094 C 71.832031 62.796875 71.839844 62.972656 71.847656 63.152344 C 71.933594 64.753906 72.214844 66.210938 73.425781 67.347656 C 74.785156 68.214844 75.867188 68.609375 77.492188 68.367188 C 78.605469 68.089844 79.609375 67.667969 80.308594 66.726562 C 81.089844 65.257812 81.121094 63.738281 81.117188 62.109375 C 81.121094 61.914062 81.121094 61.71875 81.121094 61.515625 C 81.121094 60.875 81.125 60.230469 81.125 59.589844 C 81.125 59.140625 81.125 58.691406 81.125 58.242188 C 81.128906 57.304688 81.128906 56.363281 81.128906 55.425781 C 81.128906 54.222656 81.128906 53.023438 81.132812 51.820312 C 81.136719 50.894531 81.136719 49.96875 81.136719 49.042969 C 81.136719 48.601562 81.136719 48.160156 81.140625 47.714844 C 81.140625 47.09375 81.140625 46.476562 81.140625 45.855469 C 81.140625 45.671875 81.140625 45.492188 81.144531 45.304688 C 81.132812 43.265625 81.132812 43.265625 80.148438 41.570312 C 79.757812 41.324219 79.363281 41.082031 78.96875 40.847656 C 78.476562 40.546875 78.476562 40.546875 78.261719 40.109375 C 78.242188 39.730469 78.238281 39.351562 78.238281 38.972656 C 78.242188 38.746094 78.242188 38.523438 78.242188 38.289062 C 78.242188 38.054688 78.246094 37.820312 78.246094 37.578125 C 78.25 37.339844 78.25 37.101562 78.25 36.859375 C 78.253906 36.269531 78.257812 35.683594 78.261719 35.097656 C 80.402344 33.96875 82.855469 33.269531 85.28125 33.921875 C 87 34.675781 88.039062 36.1875 88.753906 37.871094 C 89.175781 39.1875 89.171875 40.519531 89.191406 41.890625 C 89.195312 42.105469 89.199219 42.320312 89.203125 42.542969 C 89.214844 43.230469 89.226562 43.917969 89.238281 44.605469 C 89.28125 47.191406 89.328125 49.78125 89.4375 52.363281 C 89.441406 52.542969 89.449219 52.722656 89.457031 52.90625 C 89.5 53.808594 89.574219 54.554688 90 55.371094 C 90.621094 55.871094 91.285156 55.871094 92.066406 55.863281 C 93.21875 55.738281 94.3125 55.316406 95.40625 54.949219 C 99.210938 53.675781 99.210938 53.675781 101.039062 53.925781 C 101.988281 54.621094 102.449219 55.757812 103 56.773438 C 103.597656 57.820312 104.015625 58.476562 105.21875 58.859375 C 106.328125 58.960938 107.414062 58.664062 108.355469 58.066406 C 109.351562 57.191406 109.945312 55.957031 110.066406 54.648438 C 109.964844 53.421875 109.339844 52.679688 108.429688 51.894531 C 108.152344 51.671875 107.875 51.449219 107.59375 51.226562 C 107.445312 51.105469 107.292969 50.984375 107.136719 50.859375 C 105.8125 49.808594 104.457031 48.808594 103.09375 47.808594 C 101.851562 46.898438 100.621094 45.972656 99.402344 45.027344 C 99.246094 44.910156 99.085938 44.789062 98.921875 44.664062 C 96.511719 42.785156 95.117188 41 94.566406 37.929688 C 94.324219 35.210938 94.878906 32.933594 96.523438 30.738281 C 98.398438 28.679688 100.792969 27.800781 103.375 26.9375 C 103.632812 26.847656 103.886719 26.761719 104.152344 26.671875 C 104.832031 26.441406 105.511719 26.210938 106.191406 25.984375 C 106.867188 25.757812 107.546875 25.527344 108.222656 25.296875 C 110.589844 24.492188 112.957031 23.703125 115.347656 22.976562 C 115.527344 22.921875 115.703125 22.867188 115.886719 22.8125 C 116.554688 22.613281 117.125 22.453125 117.824219 22.453125 C 118.242188 23.285156 118.097656 24.433594 118.113281 25.351562 C 118.292969 26.332031 118.566406 26.652344 119.347656 27.25 C 120.25 27.574219 121.074219 27.535156 121.984375 27.261719 C 123.335938 26.289062 124.277344 24.886719 125.289062 23.578125 C 125.410156 23.421875 125.527344 23.265625 125.652344 23.105469 C 125.804688 22.910156 125.804688 22.910156 125.960938 22.707031 C 128.128906 20.015625 131.351562 18.304688 134.441406 16.894531 C 134.601562 16.820312 134.761719 16.746094 134.925781 16.671875 C 135.976562 16.210938 136.902344 16.007812 138.042969 15.914062 C 138.070312 16.664062 138.085938 17.410156 138.097656 18.160156 C 138.105469 18.375 138.113281 18.585938 138.121094 18.804688 C 138.121094 19.011719 138.125 19.214844 138.128906 19.425781 C 138.132812 19.613281 138.136719 19.804688 138.140625 19.996094 C 138.042969 20.492188 138.042969 20.492188 137.644531 20.867188 C 137.175781 21.144531 137.175781 21.144531 136.496094 21.417969 C 135.789062 21.847656 135.707031 22.089844 135.511719 22.871094 C 135.367188 23.710938 135.371094 24.546875 135.375 25.394531 C 135.375 25.597656 135.371094 25.800781 135.371094 26.007812 C 135.367188 26.671875 135.367188 27.335938 135.371094 28 C 135.367188 28.460938 135.367188 28.925781 135.367188 29.386719 C 135.363281 30.359375 135.363281 31.328125 135.367188 32.296875 C 135.367188 33.539062 135.363281 34.78125 135.359375 36.019531 C 135.355469 36.976562 135.355469 37.933594 135.355469 38.890625 C 135.355469 39.347656 135.355469 39.804688 135.351562 40.261719 C 135.351562 40.902344 135.351562 41.542969 135.355469 42.183594 C 135.351562 42.371094 135.351562 42.558594 135.347656 42.75 C 135.359375 43.921875 135.539062 44.738281 136.085938 45.777344 C 136.488281 46.171875 136.488281 46.171875 136.957031 46.40625 C 137.105469 46.488281 137.253906 46.574219 137.40625 46.664062 C 138.636719 47.265625 140.050781 47.273438 141.375 46.96875 C 142.558594 46.554688 143.429688 46.015625 144.074219 44.90625 C 144.636719 43.554688 144.632812 42.277344 144.679688 40.824219 C 144.691406 40.554688 144.699219 40.28125 144.707031 40 C 144.855469 35.257812 144.859375 30.515625 144.898438 25.777344 C 144.90625 24.382812 144.921875 22.988281 144.933594 21.59375 C 144.9375 20.953125 144.941406 20.308594 144.949219 19.664062 C 144.964844 17.605469 145.015625 15.566406 145.21875 13.515625 C 147.269531 12.796875 149.40625 12.210938 151.5625 12.847656 C 153.25 14.089844 154.332031 15.59375 154.78125 17.65625 C 155.007812 19.46875 155.039062 21.28125 155.054688 23.105469 C 155.058594 23.539062 155.0625 23.972656 155.070312 24.40625 C 155.082031 25.464844 155.09375 26.523438 155.105469 27.578125 C 155.109375 28.175781 155.117188 28.777344 155.125 29.375 C 155.132812 29.933594 155.136719 30.492188 155.140625 31.054688 C 155.144531 31.433594 155.144531 31.433594 155.152344 31.824219 C 155.152344 32.046875 155.15625 32.269531 155.160156 32.496094 C 155.242188 33.394531 155.402344 34.175781 156.027344 34.84375 C 157.066406 35.375 158.222656 35.285156 159.347656 35.097656 C 160.011719 34.722656 160.296875 34.238281 160.652344 33.570312 C 160.8125 33.289062 160.8125 33.289062 160.972656 33 C 163.257812 28.492188 164.085938 23.15625 164.222656 18.15625 C 164.238281 17.664062 164.257812 17.171875 164.273438 16.679688 C 164.296875 15.914062 164.320312 15.148438 164.34375 14.382812 C 164.363281 13.636719 164.386719 12.890625 164.414062 12.144531 C 164.417969 11.917969 164.425781 11.691406 164.429688 11.457031 C 164.492188 9.816406 164.675781 8.328125 165.703125 7.003906 C 166.394531 6.472656 167.078125 6.164062 167.894531 5.886719 C 168.042969 5.832031 168.195312 5.777344 168.347656 5.722656 C 168.824219 5.554688 169.304688 5.394531 169.78125 5.230469 C 169.941406 5.175781 170.101562 5.125 170.265625 5.066406 C 170.734375 4.910156 171.203125 4.757812 171.671875 4.605469 C 171.8125 4.558594 171.957031 4.511719 172.105469 4.464844 C 172.871094 4.222656 173.542969 4.066406 174.347656 4.140625 C 174.8125 4.609375 174.652344 5.746094 174.675781 6.402344 C 174.71875 7.195312 174.753906 7.839844 175.21875 8.5 C 176.238281 9.183594 177.285156 9.058594 178.476562 8.9375 C 180.253906 8.230469 181.074219 6.082031 181.964844 4.488281 C 183.554688 1.644531 185.160156 -0.339844 188.695312 0 Z M 188.695312 0 "/>
<path style=" stroke:none;fill-rule:nonzero;fill:rgb(100%,100%,100%);fill-opacity:1;" d="M 49.550781 17.5625 C 51.292969 18.496094 52.683594 19.847656 53.316406 21.746094 C 53.757812 23.84375 53.46875 25.636719 52.445312 27.507812 C 51.117188 29.175781 49.570312 30.113281 47.425781 30.375 C 45.445312 30.441406 44.058594 30.023438 42.539062 28.734375 C 41.347656 27.597656 40.515625 26.320312 40.382812 24.632812 C 40.335938 22.429688 40.621094 20.527344 42.1875 18.878906 C 44.273438 17.144531 46.976562 16.542969 49.550781 17.5625 Z M 49.550781 17.5625 "/>
<path style=" stroke:none;fill-rule:nonzero;fill:rgb(100%,100%,100%);fill-opacity:1;" d="M 197.851562 0.546875 C 198.878906 1.21875 199.605469 1.867188 200 3.050781 C 200.207031 4.328125 200.195312 5.496094 199.566406 6.648438 C 198.921875 7.511719 198.210938 8.003906 197.175781 8.285156 C 195.75 8.460938 194.507812 8.390625 193.261719 7.628906 C 192.191406 6.625 191.78125 5.882812 191.683594 4.414062 C 191.710938 3.230469 191.917969 2.207031 192.785156 1.359375 C 194.429688 0.078125 195.90625 -0.523438 197.851562 0.546875 Z M 193.53125 2.398438 C 192.972656 3.292969 192.914062 4.203125 193.042969 5.230469 C 193.28125 6.050781 193.609375 6.582031 194.351562 7.011719 C 195.183594 7.335938 195.777344 7.421875 196.671875 7.328125 C 197.613281 6.867188 198.21875 6.398438 198.695312 5.449219 C 198.894531 4.472656 198.9375 3.53125 198.480469 2.621094 C 198.003906 2.015625 197.480469 1.519531 196.738281 1.308594 C 195.34375 1.195312 194.5 1.292969 193.53125 2.398438 Z M 193.53125 2.398438 "/>
<path style=" stroke:none;fill-rule:nonzero;fill:rgb(100%,100%,100%);fill-opacity:1;" d="M 194.347656 1.960938 C 194.726562 1.949219 195.109375 1.941406 195.488281 1.933594 C 195.699219 1.929688 195.914062 1.925781 196.132812 1.917969 C 196.753906 1.960938 197.097656 2.042969 197.609375 2.398438 C 197.800781 3.023438 197.800781 3.023438 197.824219 3.707031 C 197.714844 3.910156 197.714844 3.910156 197.605469 4.121094 C 197.34375 4.683594 197.382812 5.003906 197.472656 5.613281 C 197.507812 5.875 197.507812 5.875 197.546875 6.140625 C 197.566406 6.273438 197.585938 6.402344 197.609375 6.539062 C 197.121094 6.511719 197.121094 6.511719 196.523438 6.320312 C 196.019531 5.652344 196.019531 5.652344 195.652344 5.015625 C 195.390625 5.523438 195.179688 5.992188 195 6.539062 C 194.785156 6.46875 194.570312 6.394531 194.347656 6.320312 C 193.90625 3.285156 193.90625 3.285156 194.347656 1.960938 Z M 195.433594 2.832031 C 195.363281 3.121094 195.292969 3.410156 195.21875 3.707031 C 195.648438 3.707031 196.078125 3.707031 196.523438 3.707031 C 196.449219 3.488281 196.378906 3.273438 196.304688 3.050781 C 195.867188 2.890625 195.867188 2.890625 195.433594 2.832031 Z M 195.433594 2.832031 "/>
</g>
</svg>
