<?xml version="1.0" encoding="UTF-8"?>
<svg xmlns="http://www.w3.org/2000/svg" xmlns:xlink="http://www.w3.org/1999/xlink" width="200px" height="px" viewBox="0 0 200 200" version="1.1">
<g id="surface1">
<path style=" stroke:none;fill-rule:nonzero;fill:rgb(79.215688%,79.215688%,79.215688%);fill-opacity:1;" d="M 49.601562 67.199219 C 50.390625 67.199219 51.183594 67.199219 52 67.199219 C 52.054688 67.660156 52.113281 68.117188 52.167969 68.589844 C 54.480469 87.984375 54.480469 87.984375 64.351562 104.449219 C 66.878906 105.867188 69.179688 106.535156 72 107.199219 C 71.75 108.75 71.75 108.75 71.199219 110.398438 C 68.082031 111.441406 66.503906 111.722656 63.199219 111.199219 C 56.671875 107.007812 53.359375 101.398438 50.398438 94.398438 C 50.136719 93.871094 49.871094 93.34375 49.601562 92.800781 C 49.601562 95.96875 49.601562 99.136719 49.601562 102.398438 C 48.808594 102.398438 48.015625 102.398438 47.199219 102.398438 C 46.8125 101.675781 46.429688 100.953125 46.03125 100.210938 C 45.519531 99.257812 45.011719 98.304688 44.5 97.351562 C 44.246094 96.875 43.992188 96.398438 43.730469 95.90625 C 42.566406 93.734375 41.371094 91.65625 40 89.601562 C 40.847656 94.070312 42.0625 98.101562 43.699219 102.351562 C 45.382812 106.980469 46.59375 111.085938 45.601562 116 C 44.324219 118.421875 43.183594 120.109375 41.136719 121.910156 C 39.730469 123.507812 39.566406 124.609375 39.25 126.699219 C 38.582031 130.007812 37.875 132.15625 35.199219 134.398438 C 32.300781 134.800781 32.300781 134.800781 29.601562 134.398438 C 29.070312 133.609375 28.542969 132.816406 28 132 C 27.191406 132.28125 26.382812 132.5625 25.550781 132.851562 C 21.242188 134.054688 18 133.347656 13.949219 131.5 C 7.933594 127.738281 4.84375 121.953125 2.734375 115.339844 C 1.394531 108.375 1.636719 101.429688 5.257812 95.257812 C 6.851562 92.941406 8.503906 90.882812 10.398438 88.800781 C 10.730469 88.371094 11.058594 87.941406 11.398438 87.5 C 13.480469 84.792969 15.0625 83.234375 18.398438 82.398438 C 20.648438 82.300781 20.648438 82.300781 22.398438 82.398438 C 22.472656 81.507812 22.472656 81.507812 22.550781 80.601562 C 23.453125 77.546875 24.480469 76.886719 27.199219 75.199219 C 31.234375 73.460938 34.777344 72 39.199219 72 C 39.402344 72.648438 39.605469 73.292969 39.816406 73.960938 C 40.089844 74.8125 40.367188 75.667969 40.648438 76.550781 C 40.917969 77.394531 41.1875 78.238281 41.464844 79.109375 C 42.355469 81.484375 43.421875 83.472656 44.800781 85.601562 C 44.886719 84.730469 44.976562 83.863281 45.066406 82.96875 C 45.191406 81.8125 45.320312 80.65625 45.449219 79.5 C 45.507812 78.929688 45.5625 78.359375 45.621094 77.773438 C 46.058594 73.9375 46.742188 70.058594 49.601562 67.199219 Z M 29.898438 78.800781 C 28.917969 79.132812 28.917969 79.132812 27.917969 79.476562 C 27.417969 79.648438 26.917969 79.820312 26.398438 80 C 28.808594 80.746094 29.492188 80.835938 32 80 C 32 82.375 32 84.753906 32 87.199219 C 32.792969 86.9375 33.585938 86.671875 34.398438 86.398438 C 34.664062 83.496094 34.929688 80.59375 35.199219 77.601562 C 33.226562 77.601562 31.765625 78.160156 29.898438 78.800781 Z M 16.800781 87.199219 C 18.015625 89.632812 19.984375 90.117188 22.398438 91.199219 C 22.929688 91.199219 23.457031 91.199219 24 91.199219 C 24.792969 94.105469 25.585938 97.007812 26.398438 100 C 27.191406 99.472656 27.984375 98.945312 28.800781 98.398438 C 28.597656 94.1875 28.597656 94.1875 26.050781 91 C 25.375 90.539062 24.695312 90.074219 24 89.601562 C 23.472656 88.808594 22.945312 88.015625 22.398438 87.199219 C 19.53125 87 19.53125 87 16.800781 87.199219 Z M 38.398438 87.199219 C 39.199219 88.800781 39.199219 88.800781 39.199219 88.800781 Z M 33.050781 90.800781 C 31.644531 93.476562 32.191406 94.917969 32.929688 97.757812 C 33.582031 99.488281 33.582031 99.488281 36 100.800781 C 36.792969 100.535156 37.585938 100.273438 38.398438 100 C 37.34375 96.566406 36.289062 93.136719 35.199219 89.601562 C 34.199219 89.511719 34.199219 89.511719 33.050781 90.800781 Z M 12.800781 92.800781 C 12.800781 93.328125 12.800781 93.855469 12.800781 94.398438 C 13.59375 94.136719 14.382812 93.871094 15.199219 93.601562 C 14.40625 93.335938 13.617188 93.070312 12.800781 92.800781 Z M 18.398438 94.398438 C 18.300781 94.910156 18.203125 95.421875 18.101562 95.949219 C 17.933594 96.496094 17.769531 97.039062 17.601562 97.601562 C 15.433594 98.683594 13.59375 98.453125 11.199219 98.398438 C 10.9375 97.871094 10.671875 97.34375 10.398438 96.800781 C 9.871094 96.800781 9.34375 96.800781 8.800781 96.800781 C 6.90625 106.027344 8.316406 114.65625 13.148438 122.851562 C 14.878906 125.339844 16.53125 127.273438 19.199219 128.800781 C 22.121094 129.160156 24.007812 129.15625 26.699219 127.949219 C 28.628906 125.648438 28.746094 123.753906 28.800781 120.800781 C 28.050781 119.183594 28.050781 119.183594 26.398438 118.398438 C 23.914062 117.820312 23.914062 117.820312 21.601562 117.601562 C 22.128906 116.542969 22.65625 115.488281 23.199219 114.398438 C 28.40625 114.105469 28.40625 114.105469 30.199219 115.449219 C 30.53125 115.894531 30.859375 116.339844 31.199219 116.800781 C 31.992188 117.605469 32.792969 118.40625 33.601562 119.199219 C 32.613281 113.742188 31.285156 108.484375 29.601562 103.199219 C 27.621094 102.804688 27.621094 102.804688 25.601562 102.398438 C 25.402344 103.011719 25.203125 103.621094 25 104.25 C 23.859375 106.703125 23.199219 107.570312 20.800781 108.800781 C 15.953125 109.308594 15.953125 109.308594 13.648438 107.75 C 12.800781 106.398438 12.800781 106.398438 12.800781 104 C 13.59375 103.734375 14.382812 103.472656 15.199219 103.199219 C 15.464844 103.992188 15.726562 104.785156 16 105.601562 C 18.375 105.328125 18.375 105.328125 20.800781 104.800781 C 21.785156 102.832031 21.613281 101.773438 21.398438 99.601562 C 21.320312 98.648438 21.320312 98.648438 21.238281 97.675781 C 20.917969 95.695312 20.917969 95.695312 18.398438 94.398438 Z M 38.398438 103.199219 C 37.609375 103.726562 36.816406 104.257812 36 104.800781 C 36.226562 106.367188 36.460938 107.933594 36.699219 109.5 C 36.828125 110.371094 36.960938 111.246094 37.09375 112.144531 C 37.410156 114.496094 37.410156 114.496094 39.199219 116 C 40.578125 114.625 40.136719 112.824219 40.148438 110.949219 C 40.167969 109.792969 40.167969 109.792969 40.183594 108.609375 C 40 106.386719 39.539062 105.09375 38.398438 103.199219 Z M 32 122.398438 C 31.472656 124.246094 30.945312 126.097656 30.398438 128 C 31.984375 128.792969 31.984375 128.792969 33.601562 129.601562 C 35.652344 127.546875 35.632812 126.019531 36 123.199219 C 34.679688 122.9375 33.359375 122.671875 32 122.398438 Z M 32 122.398438 "/>
<path style=" stroke:none;fill-rule:nonzero;fill:rgb(77.254903%,77.254903%,77.254903%);fill-opacity:1;" d="M 190.648438 81.351562 C 193.976562 84.210938 195.75 85.824219 196.550781 90.25 C 196.386719 94.023438 194.292969 96.105469 191.78125 98.746094 C 189.15625 101.128906 186.84375 101.121094 183.414062 101.074219 C 181.601562 100.800781 181.601562 100.800781 179.101562 99.101562 C 177.601562 96.800781 177.601562 96.800781 177.550781 94.351562 C 178.511719 91.6875 179.273438 90.417969 181.601562 88.800781 C 183.800781 89 183.800781 89 185.601562 89.601562 C 185.601562 90.128906 185.601562 90.65625 185.601562 91.199219 C 184.832031 91.769531 184.832031 91.769531 184.050781 92.351562 C 182.171875 93.527344 182.171875 93.527344 181.601562 96 C 185.347656 95.71875 185.347656 95.71875 188.699219 94.199219 C 189.882812 92.359375 190.242188 90.980469 190.398438 88.800781 C 190.074219 86.945312 190.074219 86.945312 188.800781 85.601562 C 184.75 83.9375 181.269531 85.378906 177.398438 86.910156 C 171.191406 89.988281 166.992188 95.128906 163.75 101.148438 C 162.960938 104.089844 163 106.554688 163.199219 109.601562 C 164.65625 111.402344 164.65625 111.402344 166.75 111.351562 C 168.894531 111.277344 168.894531 111.277344 171.199219 110.398438 C 171.335938 109.265625 171.46875 108.132812 171.601562 107 C 171.675781 106.367188 171.75 105.738281 171.824219 105.085938 C 172.050781 102.984375 172.050781 102.984375 172 100 C 174.921875 101 175.824219 101.335938 177.601562 104 C 177.976562 107.332031 177.808594 109.183594 176.300781 112.199219 C 174.15625 114.683594 172.710938 115.761719 169.601562 116.800781 C 165.253906 116.722656 162.515625 115.589844 159.199219 112.800781 C 156.632812 109.320312 156.410156 106.328125 156.992188 102.171875 C 159.082031 94.722656 165.09375 87.523438 171.671875 83.546875 C 177.730469 80.425781 184.191406 78.058594 190.648438 81.351562 Z M 190.648438 81.351562 "/>
<path style=" stroke:none;fill-rule:nonzero;fill:rgb(74.901962%,74.901962%,74.901962%);fill-opacity:1;" d="M 155.199219 72 C 157.148438 73.300781 157.148438 73.300781 158.398438 75.199219 C 158.144531 80.257812 158.144531 80.257812 156.800781 81.601562 C 155.46875 81.632812 154.132812 81.632812 152.800781 81.601562 C 153.328125 79.753906 153.855469 77.902344 154.398438 76 C 152.46875 75.867188 152.46875 75.867188 150.398438 76 C 149.871094 76.527344 149.34375 77.054688 148.800781 77.601562 C 148.851562 79.152344 148.957031 80.703125 149.101562 82.25 C 149.164062 84.867188 149.164062 84.867188 148.800781 87.199219 C 147.285156 88.734375 145.863281 89.472656 143.929688 90.402344 C 142.222656 91.128906 142.222656 91.128906 141.199219 93.101562 C 140.703125 95.703125 140.695312 98.15625 140.800781 100.800781 C 142.335938 101.023438 142.335938 101.023438 143.898438 101.25 C 144.761719 101.375 144.761719 101.375 145.644531 101.503906 C 147.265625 101.734375 147.265625 101.734375 148.800781 100.800781 C 149.328125 98.375 149.328125 98.375 149.601562 96 C 148.542969 96 147.488281 96 146.398438 96 C 146.398438 97.320312 146.398438 98.640625 146.398438 100 C 144.851562 100.449219 144.851562 100.449219 143.199219 100.800781 C 142.9375 100.535156 142.671875 100.273438 142.398438 100 C 142.515625 96.925781 142.667969 95.023438 144.699219 92.648438 C 148.28125 90.570312 152.074219 89.292969 156 88 C 155.605469 86.019531 155.605469 86.019531 155.199219 84 C 155.992188 83.734375 156.785156 83.472656 157.601562 83.199219 C 160 84.800781 160 84.800781 160.550781 87.449219 C 160 90.398438 160 90.398438 158.566406 91.65625 C 156.941406 92.660156 155.316406 93.566406 153.601562 94.398438 C 153.863281 94.664062 154.128906 94.929688 154.398438 95.199219 C 154.730469 97.5625 154.84375 99.28125 153.5625 101.355469 C 152.125 103.109375 150.84375 104.578125 148.800781 105.601562 C 143.914062 106.007812 141.496094 105.660156 137.601562 102.398438 C 135.886719 100.859375 135.296875 99.835938 134.945312 97.566406 C 134.777344 94.289062 135.058594 92.296875 136.5 89.300781 C 138.566406 87.015625 140.367188 85.957031 143.199219 84.800781 C 143.164062 84.269531 143.125 83.738281 143.085938 83.191406 C 142.851562 77.417969 142.851562 77.417969 144.550781 74.398438 C 148.0625 71.363281 150.695312 70.65625 155.199219 72 Z M 155.199219 72 "/>
<path style=" stroke:none;fill-rule:nonzero;fill:rgb(76.862746%,76.862746%,76.862746%);fill-opacity:1;" d="M 99.199219 67.199219 C 100.519531 67.199219 101.839844 67.199219 103.199219 67.199219 C 104.167969 70.109375 103.769531 72.019531 103.324219 74.996094 C 103.195312 76.863281 103.449219 78.222656 104 80 C 103.207031 80.265625 102.414062 80.527344 101.601562 80.800781 C 101.070312 85.289062 100.542969 89.777344 100 94.398438 C 101.054688 94.398438 102.113281 94.398438 103.199219 94.398438 C 103.050781 95.851562 103.050781 95.851562 102.398438 97.601562 C 100.550781 99.101562 100.550781 99.101562 98.398438 100 C 96.601562 99.449219 96.601562 99.449219 95.199219 98.398438 C 94.050781 96.101562 94.488281 94.296875 94.699219 91.75 C 94.773438 90.84375 94.84375 89.941406 94.917969 89.007812 C 95.160156 86.761719 95.511719 84.605469 96 82.398438 C 93.5 82.398438 91.753906 83.609375 89.601562 84.800781 C 88.128906 87.746094 88.46875 91.394531 88.316406 94.65625 C 88.082031 99.121094 88.082031 99.121094 87.199219 100 C 85.199219 100.101562 85.199219 100.101562 83.199219 100 C 82.398438 99.199219 82.398438 99.199219 82.382812 97.714844 C 82.421875 97.082031 82.457031 96.449219 82.496094 95.796875 C 82.535156 95.113281 82.574219 94.429688 82.613281 93.726562 C 82.660156 93.007812 82.703125 92.289062 82.75 91.550781 C 82.792969 90.828125 82.832031 90.105469 82.875 89.363281 C 82.980469 87.574219 83.089844 85.789062 83.199219 84 C 82.144531 83.734375 81.089844 83.472656 80 83.199219 C 80.921875 81.226562 81.636719 79.960938 83.199219 78.398438 C 84.800781 78.667969 86.398438 78.933594 88 79.199219 C 88.527344 78.671875 89.054688 78.144531 89.601562 77.601562 C 90.210938 77.730469 90.820312 77.863281 91.449219 78 C 94.035156 78.480469 95.273438 77.929688 97.601562 76.800781 C 97.671875 75.960938 97.671875 75.960938 97.746094 75.105469 C 97.8125 74.378906 97.882812 73.648438 97.949219 72.898438 C 98.015625 72.175781 98.078125 71.453125 98.148438 70.707031 C 98.398438 68.800781 98.398438 68.800781 99.199219 67.199219 Z M 99.199219 67.199219 "/>
<path style=" stroke:none;fill-rule:nonzero;fill:rgb(81.960785%,81.960785%,81.960785%);fill-opacity:1;" d="M 76.800781 81.601562 C 76.8125 82.050781 76.824219 82.503906 76.835938 82.96875 C 76.894531 85.015625 76.972656 87.058594 77.050781 89.101562 C 77.066406 89.8125 77.085938 90.523438 77.105469 91.257812 C 77.148438 92.277344 77.148438 92.277344 77.191406 93.320312 C 77.210938 93.945312 77.234375 94.574219 77.253906 95.222656 C 77.480469 97.121094 77.480469 97.121094 80 98.398438 C 79.542969 100.695312 79.3125 101.488281 77.601562 103.199219 C 75.050781 104.050781 75.050781 104.050781 72 104.800781 C 70.539062 105.171875 70.539062 105.171875 69.050781 105.550781 C 68.175781 105.566406 67.300781 105.582031 66.398438 105.601562 C 62.804688 102.097656 62.25 99.496094 62.148438 94.601562 C 62.1875 89.910156 62.265625 87.335938 65.601562 84 C 69.074219 81.347656 72.574219 80.191406 76.800781 81.601562 Z M 68.800781 87.199219 C 66.941406 91.460938 67.269531 94.75 68 99.199219 C 69.585938 99.597656 69.585938 99.597656 71.199219 100 C 73.230469 95.8125 73.421875 91.640625 72 87.199219 C 70.945312 87.199219 69.886719 87.199219 68.800781 87.199219 Z M 68.800781 87.199219 "/>
<path style=" stroke:none;fill-rule:nonzero;fill:rgb(80.392158%,80.392158%,80.392158%);fill-opacity:1;" d="M 189.601562 106.398438 C 192 108 192 108 193.601562 110.398438 C 194.378906 115.148438 193.476562 117.882812 190.734375 121.789062 C 188.363281 124.738281 186.519531 126.148438 182.851562 127.148438 C 179.554688 127.207031 177.945312 126.585938 175.199219 124.800781 C 173.1875 121.78125 173.242188 120.382812 173.601562 116.800781 C 176.5 109.914062 181.855469 105.003906 189.601562 106.398438 Z M 180.539062 115.234375 C 178.949219 116.8125 178.949219 116.8125 178.800781 119.550781 C 178.933594 120.226562 179.0625 120.902344 179.199219 121.601562 C 181.710938 121.539062 183.441406 121.257812 185.414062 119.640625 C 186.738281 118.214844 187.835938 116.890625 188.800781 115.199219 C 188.839844 112.914062 188.839844 112.914062 188 111.199219 C 184.511719 111.199219 183.0625 112.96875 180.539062 115.234375 Z M 180.539062 115.234375 "/>
<path style=" stroke:none;fill-rule:nonzero;fill:rgb(75.294119%,75.294119%,75.294119%);fill-opacity:1;" d="M 124.300781 78.601562 C 125.214844 78.652344 126.128906 78.707031 127.070312 78.761719 C 129.714844 79.21875 130.929688 79.699219 132.800781 81.601562 C 133.441406 86 132.195312 89.695312 130.847656 93.882812 C 130.355469 96.207031 130.578125 97.726562 131.199219 100 C 129.351562 100.5 129.351562 100.5 127.199219 100.800781 C 126.40625 100.273438 125.617188 99.742188 124.800781 99.199219 C 125.230469 93.847656 126.308594 89.09375 128 84 C 126.414062 84.410156 126.414062 84.410156 124.800781 85.601562 C 123.960938 87.492188 123.300781 89.234375 122.699219 91.199219 C 120.980469 96.621094 120.980469 96.621094 119.199219 98.398438 C 117.5 98.101562 117.5 98.101562 116 97.601562 C 116.589844 92.414062 117.882812 87.445312 119.199219 82.398438 C 118.40625 82.136719 117.617188 81.871094 116.800781 81.601562 C 117.0625 80.808594 117.328125 80.015625 117.601562 79.199219 C 119.902344 78.050781 121.746094 78.429688 124.300781 78.601562 Z M 124.300781 78.601562 "/>
<path style=" stroke:none;fill-rule:nonzero;fill:rgb(77.64706%,77.64706%,77.64706%);fill-opacity:1;" d="M 112.800781 77.601562 C 113.601562 78.398438 113.601562 78.398438 113.800781 81.101562 C 113.769531 85.453125 112.476562 89.46875 111.199219 93.601562 C 111.992188 93.863281 112.785156 94.128906 113.601562 94.398438 C 113.335938 95.457031 113.070312 96.511719 112.800781 97.601562 C 110.101562 98.101562 110.101562 98.101562 107.199219 98.398438 C 105.601562 96.800781 105.601562 96.800781 105.398438 94.300781 C 105.617188 90.914062 106.339844 88.078125 107.199219 84.800781 C 107.199219 83.742188 107.199219 82.6875 107.199219 81.601562 C 106.671875 81.335938 106.144531 81.070312 105.601562 80.800781 C 107.394531 76.828125 108.601562 76.523438 112.800781 77.601562 Z M 112.800781 77.601562 "/>
<path style=" stroke:none;fill-rule:nonzero;fill:rgb(74.901962%,74.901962%,74.901962%);fill-opacity:1;" d="M 121.148438 116.550781 C 122.089844 116.53125 122.089844 116.53125 123.046875 116.507812 C 124.800781 116.800781 124.800781 116.800781 126.246094 117.867188 C 127.199219 119.199219 127.199219 119.199219 126.898438 121.601562 C 126.734375 122.390625 126.570312 123.183594 126.398438 124 C 126.664062 124.792969 126.929688 125.585938 127.199219 126.398438 C 126.398438 128.800781 126.398438 128.800781 124.699219 130.25 C 121.53125 131.558594 119.90625 130.890625 116.800781 129.601562 C 115.199219 127.199219 115.199219 127.199219 115.5 124.898438 C 115.664062 124.074219 115.828125 123.25 116 122.398438 C 115.984375 121.675781 115.96875 120.949219 115.949219 120.199219 C 116.046875 116.6875 118.164062 116.566406 121.148438 116.550781 Z M 120 120 C 120 120.527344 120 121.054688 120 121.601562 C 120.792969 121.601562 121.585938 121.601562 122.398438 121.601562 C 122.398438 121.070312 122.398438 120.542969 122.398438 120 C 121.609375 120 120.816406 120 120 120 Z M 120 125.601562 C 120 126.128906 120 126.65625 120 127.199219 C 120.792969 127.199219 121.585938 127.199219 122.398438 127.199219 C 122.398438 126.671875 122.398438 126.144531 122.398438 125.601562 C 121.609375 125.601562 120.816406 125.601562 120 125.601562 Z M 120 125.601562 "/>
<path style=" stroke:none;fill-rule:nonzero;fill:rgb(72.941178%,72.941178%,72.941178%);fill-opacity:1;" d="M 80 116.800781 C 80.800781 122.199219 80.800781 122.199219 80.800781 124 C 80.882812 124.777344 80.964844 125.550781 81.050781 126.351562 C 80.800781 128.800781 80.800781 128.800781 79.148438 130.300781 C 76.347656 131.375 74.179688 131.429688 71.199219 131.199219 C 70.398438 130.398438 70.398438 130.398438 70.351562 127.949219 C 70.367188 127.175781 70.382812 126.398438 70.398438 125.601562 C 70.863281 125.847656 71.324219 126.09375 71.800781 126.351562 C 73.472656 127.140625 74.996094 127.613281 76.800781 128 C 76.800781 127.472656 76.800781 126.945312 76.800781 126.398438 C 76.191406 126.316406 75.578125 126.234375 74.949219 126.148438 C 72.625 125.554688 71.695312 125.214844 70.398438 123.199219 C 70.59375 120.527344 70.882812 119.515625 72.800781 117.601562 C 75.222656 116.765625 77.453125 116.730469 80 116.800781 Z M 80 116.800781 "/>
<path style=" stroke:none;fill-rule:nonzero;fill:rgb(73.725492%,73.725492%,73.725492%);fill-opacity:1;" d="M 68 117.601562 C 69.601562 120 69.601562 120 69.601562 122.398438 C 67.753906 121.871094 65.902344 121.34375 64 120.800781 C 64 121.328125 64 121.855469 64 122.398438 C 65.054688 122.664062 66.113281 122.929688 67.199219 123.199219 C 66.9375 123.992188 66.671875 124.785156 66.398438 125.601562 C 65.609375 125.601562 64.816406 125.601562 64 125.601562 C 64 126.128906 64 126.65625 64 127.199219 C 65.585938 126.671875 67.167969 126.144531 68.800781 125.601562 C 68.898438 127.5 68.898438 127.5 68.800781 129.601562 C 67.199219 131.199219 67.199219 131.199219 65.292969 131.355469 C 64.570312 131.335938 63.847656 131.320312 63.101562 131.300781 C 61.8125 131.265625 60.527344 131.234375 59.199219 131.199219 C 59.199219 126.710938 59.199219 122.222656 59.199219 117.601562 C 62.601562 116.75 64.609375 116.847656 68 117.601562 Z M 68 117.601562 "/>
<path style=" stroke:none;fill-rule:nonzero;fill:rgb(72.156864%,72.156864%,72.156864%);fill-opacity:1;" d="M 133.898438 116.601562 C 136.800781 116.800781 136.800781 116.800781 138.132812 117.742188 C 140.292969 120.691406 140.257812 124.453125 140 128 C 138.351562 130.199219 138.351562 130.199219 136 131.199219 C 133.363281 131.148438 131.832031 130.828125 129.648438 129.351562 C 128.800781 128 128.800781 128 129.050781 126.25 C 129.320312 125.53125 129.320312 125.53125 129.601562 124.800781 C 131.183594 125.195312 131.183594 125.195312 132.800781 125.601562 C 132.800781 126.128906 132.800781 126.65625 132.800781 127.199219 C 133.59375 127.199219 134.382812 127.199219 135.199219 127.199219 C 134.902344 126.457031 134.605469 125.714844 134.300781 124.949219 C 134.070312 124.109375 133.839844 123.265625 133.601562 122.398438 C 134.128906 121.609375 134.65625 120.816406 135.199219 120 C 133.351562 120.527344 131.503906 121.054688 129.601562 121.601562 C 130.453125 116.855469 130.453125 116.855469 133.898438 116.601562 Z M 133.898438 116.601562 "/>
<path style=" stroke:none;fill-rule:nonzero;fill:rgb(72.549021%,72.549021%,72.549021%);fill-opacity:1;" d="M 148.800781 116.800781 C 150.300781 117.75 150.300781 117.75 151.199219 119.199219 C 151.234375 120.53125 151.234375 121.867188 151.199219 123.199219 C 151.726562 123.726562 152.257812 124.257812 152.800781 124.800781 C 152.71875 127.277344 151.941406 128.058594 150.199219 129.851562 C 148 131.199219 148 131.199219 145.898438 131.148438 C 143.867188 130.347656 142.8125 129.820312 141.601562 128 C 141.851562 126.25 141.851562 126.25 142.398438 124.800781 C 143.191406 124.800781 143.984375 124.800781 144.800781 124.800781 C 145.0625 125.328125 145.328125 125.855469 145.601562 126.398438 C 146.390625 126.664062 147.183594 126.929688 148 127.199219 C 148 126.40625 148 125.617188 148 124.800781 C 147.472656 124.800781 146.945312 124.800781 146.398438 124.800781 C 146.664062 123.214844 146.929688 121.632812 147.199219 120 C 146.722656 120.414062 146.242188 120.824219 145.75 121.25 C 145.171875 121.628906 144.59375 122.007812 144 122.398438 C 143.207031 122.136719 142.414062 121.871094 141.601562 121.601562 C 141.898438 119.648438 141.898438 119.648438 142.398438 117.601562 C 144.640625 116.480469 146.324219 116.597656 148.800781 116.800781 Z M 148.800781 116.800781 "/>
<path style=" stroke:none;fill-rule:nonzero;fill:rgb(70.19608%,70.19608%,70.19608%);fill-opacity:1;" d="M 86.25 116.550781 C 88.835938 116.574219 89.441406 116.679688 91.601562 118.300781 C 92.800781 120 92.800781 120 92.800781 121.601562 C 91.480469 121.601562 90.160156 121.601562 88.800781 121.601562 C 88.800781 124.503906 88.800781 127.40625 88.800781 130.398438 C 87.214844 130.398438 85.632812 130.398438 84 130.398438 C 84 127.496094 84 124.59375 84 121.601562 C 83.207031 121.601562 82.414062 121.601562 81.601562 121.601562 C 82.449219 116.863281 82.449219 116.863281 86.25 116.550781 Z M 86.25 116.550781 "/>
<path style=" stroke:none;fill-rule:nonzero;fill:rgb(77.254903%,77.254903%,77.254903%);fill-opacity:1;" d="M 112 116.800781 C 112.265625 121.289062 112.527344 125.777344 112.800781 130.398438 C 110.953125 130.398438 109.105469 130.398438 107.199219 130.398438 C 107.136719 128.433594 107.085938 126.46875 107.050781 124.5 C 107.03125 123.941406 107.011719 123.382812 106.988281 122.804688 C 106.964844 121.179688 106.964844 121.179688 107.199219 118.398438 C 109.601562 116.800781 109.601562 116.800781 112 116.800781 Z M 112 116.800781 "/>
<path style=" stroke:none;fill-rule:nonzero;fill:rgb(53.725493%,53.725493%,53.725493%);fill-opacity:1;" d="M 154.398438 90.398438 C 153.890625 90.558594 153.378906 90.714844 152.851562 90.875 C 150.773438 91.628906 149.023438 92.347656 147.199219 93.601562 C 146.277344 95.898438 146.359375 97.472656 146.398438 100 C 144.851562 100.449219 144.851562 100.449219 143.199219 100.800781 C 142.9375 100.535156 142.671875 100.273438 142.398438 100 C 142.523438 96.695312 142.65625 94.960938 145 92.550781 C 148.449219 90.433594 150.445312 89.238281 154.398438 90.398438 Z M 154.398438 90.398438 "/>
<path style=" stroke:none;fill-rule:nonzero;fill:rgb(61.56863%,61.56863%,61.56863%);fill-opacity:1;" d="M 70.398438 125.601562 C 71.09375 125.972656 71.09375 125.972656 71.800781 126.351562 C 73.472656 127.140625 74.996094 127.613281 76.800781 128 C 77.0625 127.472656 77.328125 126.945312 77.601562 126.398438 C 77.601562 127.191406 77.601562 127.984375 77.601562 128.800781 C 78.128906 129.328125 78.65625 129.855469 79.199219 130.398438 C 76.40625 131.332031 74.128906 131.308594 71.199219 131.199219 C 70.398438 130.398438 70.398438 130.398438 70.351562 127.949219 C 70.367188 127.175781 70.382812 126.398438 70.398438 125.601562 Z M 70.398438 125.601562 "/>
<path style=" stroke:none;fill-rule:nonzero;fill:rgb(69.803923%,69.803923%,69.803923%);fill-opacity:1;" d="M 111.199219 67.199219 C 112.539062 67.429688 113.875 67.695312 115.199219 68 C 114.9375 69.585938 114.671875 71.167969 114.398438 72.800781 C 112.898438 73.300781 112.898438 73.300781 111.199219 73.601562 C 110.671875 73.070312 110.144531 72.542969 109.601562 72 C 110.042969 68.355469 110.042969 68.355469 111.199219 67.199219 Z M 111.199219 67.199219 "/>
<path style=" stroke:none;fill-rule:nonzero;fill:rgb(42.745098%,42.745098%,42.745098%);fill-opacity:1;" d="M 193.601562 100 C 195.699219 100.300781 195.699219 100.300781 197.601562 100.800781 C 197.601562 102.121094 197.601562 103.441406 197.601562 104.800781 C 196.28125 105.0625 194.960938 105.328125 193.601562 105.601562 C 193.070312 104.28125 192.542969 102.960938 192 101.601562 C 192.527344 101.070312 193.054688 100.542969 193.601562 100 Z M 193.601562 100 "/>
<path style=" stroke:none;fill-rule:nonzero;fill:rgb(62.352943%,62.352943%,62.352943%);fill-opacity:1;" d="M 184.800781 128 C 186.449219 128.351562 186.449219 128.351562 188 128.800781 C 187.734375 130.121094 187.472656 131.441406 187.199219 132.800781 C 186.144531 132.535156 185.089844 132.273438 184 132 C 184 128.800781 184 128.800781 184.800781 128 Z M 184.800781 128 "/>
<path style=" stroke:none;fill-rule:nonzero;fill:rgb(70.19608%,70.19608%,70.19608%);fill-opacity:1;" d="M 95.199219 125.601562 C 96.785156 125.996094 96.785156 125.996094 98.398438 126.398438 C 98.398438 127.71875 98.398438 129.039062 98.398438 130.398438 C 97.078125 130.136719 95.761719 129.871094 94.398438 129.601562 C 94.664062 128.28125 94.929688 126.960938 95.199219 125.601562 Z M 95.199219 125.601562 "/>
<path style=" stroke:none;fill-rule:nonzero;fill:rgb(34.901962%,34.901962%,34.901962%);fill-opacity:1;" d="M 29.601562 127.199219 C 30.390625 127.992188 31.183594 128.785156 32 129.601562 C 31.207031 129.601562 30.414062 129.601562 29.601562 129.601562 C 29.601562 130.921875 29.601562 132.238281 29.601562 133.601562 C 28.542969 132.542969 27.488281 131.488281 26.398438 130.398438 C 27.457031 129.34375 28.511719 128.289062 29.601562 127.199219 Z M 29.601562 127.199219 "/>
<path style=" stroke:none;fill-rule:nonzero;fill:rgb(75.686276%,75.686276%,75.686276%);fill-opacity:1;" d="M 144 96 C 144.265625 96.527344 144.527344 97.054688 144.800781 97.601562 C 145.328125 97.601562 145.855469 97.601562 146.398438 97.601562 C 146.136719 98.65625 145.871094 99.710938 145.601562 100.800781 C 144.542969 100.535156 143.488281 100.273438 142.398438 100 C 142.929688 98.679688 143.457031 97.359375 144 96 Z M 144 96 "/>
</g>
</svg>
