<?xml version="1.0" encoding="UTF-8"?>
<svg version="1.1" xmlns="http://www.w3.org/2000/svg" width="200" height="200">
<path d="M0 0 C1.85560883 3.71121765 2.20730104 6.85140075 1.4375 10.875 C-1.05706746 15.86413492 -4.94506413 19.76633155 -9.5625 22.875 C-10.88857896 23.23611424 -12.22166749 23.57324336 -13.5625 23.875 C-12.94403536 26.79319239 -12.31801865 29.70941022 -11.6875 32.625 C-11.51347656 33.45 -11.33945313 34.275 -11.16015625 35.125 C-10.98613281 35.92421875 -10.81210938 36.7234375 -10.6328125 37.546875 C-10.47570801 38.2800293 -10.31860352 39.01318359 -10.15673828 39.76855469 C-9.52527512 42.00695411 -8.74492906 43.87245516 -7.5625 45.875 C-4.30946956 47.50151522 -1.17024398 46.98953156 2.4375 46.875 C2.7675 46.545 3.0975 46.215 3.4375 45.875 C2.65503906 45.75382812 1.87257812 45.63265625 1.06640625 45.5078125 C0.05449219 45.34023437 -0.95742187 45.17265625 -2 45 C-3.00933594 44.83757812 -4.01867187 44.67515625 -5.05859375 44.5078125 C-5.88488281 44.29898438 -6.71117187 44.09015625 -7.5625 43.875 C-7.8925 43.215 -8.2225 42.555 -8.5625 41.875 C-3.9425 41.875 0.6775 41.875 5.4375 41.875 C4.7775 40.555 4.1175 39.235 3.4375 37.875 C-1.35558342 37.40977707 -1.35558342 37.40977707 -5.5 39.375 C-5.850625 39.87 -6.20125 40.365 -6.5625 40.875 C-7.5525 40.545 -8.5425 40.215 -9.5625 39.875 C-8.5725 38.225 -7.5825 36.575 -6.5625 34.875 C-7.5525 34.38 -7.5525 34.38 -8.5625 33.875 C-9.12942263 29.24513185 -8.75961107 26.52757604 -5.9375 22.875 C-4.2890625 21.1171875 -4.2890625 21.1171875 -2.5625 19.875 C0.6875 20 0.6875 20 3.4375 20.875 C4.0975 20.545 4.7575 20.215 5.4375 19.875 C6.98543247 19.80271737 8.53646471 19.79119734 10.0859375 19.8125 C11.47039062 19.82410156 11.47039062 19.82410156 12.8828125 19.8359375 C14.82812639 19.86187502 16.77343891 19.88791585 18.71875 19.9140625 C19.64429688 19.92179687 20.56984375 19.92953125 21.5234375 19.9375 C22.7926001 19.95490234 22.7926001 19.95490234 24.08740234 19.97265625 C26.34915046 19.87867129 28.27135613 19.50978574 30.4375 18.875 C30.4375 17.885 30.4375 16.895 30.4375 15.875 C31.7575 15.875 33.0775 15.875 34.4375 15.875 C34.4375 16.865 34.4375 17.855 34.4375 18.875 C36.62475251 19.04488369 38.81231701 19.21075269 41 19.375 C42.21816406 19.4678125 43.43632812 19.560625 44.69140625 19.65625 C48.28526389 19.8661103 51.83857592 19.90989866 55.4375 19.875 C60.4375 19.875 65.4375 19.875 70.4375 19.875 C70.4375 20.535 70.4375 21.195 70.4375 21.875 C69.7775 22.205 69.1175 22.535 68.4375 22.875 C68.9325 24.36 68.9325 24.36 69.4375 25.875 C67.7875 26.865 66.1375 27.855 64.4375 28.875 C65.07558594 29.11734375 65.71367187 29.3596875 66.37109375 29.609375 C67.19738281 29.94453125 68.02367187 30.2796875 68.875 30.625 C69.69871094 30.94984375 70.52242188 31.2746875 71.37109375 31.609375 C73.4375 32.875 73.4375 32.875 74.22265625 35.015625 C74.29355469 35.62921875 74.36445313 36.2428125 74.4375 36.875 C70.33292386 39.86014628 67.46004631 40.1704439 62.4375 39.875 C62.1590625 40.926875 62.1590625 40.926875 61.875 42 C59.87434502 46.00130997 57.20488693 48.48721955 53.4375 50.875 C49.43768369 51.87495408 47.34100005 52.17616668 43.4375 50.875 C44.3125 44 44.3125 44 45.4375 42.875 C39.6320627 42.77029271 33.91168842 42.87026428 28.125 43.375 C21.22180385 43.96409486 14.3612149 43.96842344 7.4375 43.875 C7.19 44.65875 6.9425 45.4425 6.6875 46.25 C5.4375 48.875 5.4375 48.875 3.5859375 50.1484375 C-0.25700498 51.44805078 -3.58517095 51.82429282 -7.5625 50.875 C-13.70253685 46.67609588 -15.16392474 38.3861349 -16.91503906 31.60375977 C-17.41420848 29.68050197 -17.98288134 27.7755612 -18.5625 25.875 C-19.2225 25.545 -19.8825 25.215 -20.5625 24.875 C-22.03189453 29.17822683 -23.33693263 33.49797367 -24.5625 37.875 C-23.2425 38.535 -21.9225 39.195 -20.5625 39.875 C-20.5625 40.535 -20.5625 41.195 -20.5625 41.875 C-25.5125 41.875 -30.4625 41.875 -35.5625 41.875 C-35.5625 41.215 -35.5625 40.555 -35.5625 39.875 C-34.81613281 39.47667969 -34.06976563 39.07835937 -33.30078125 38.66796875 C-29.7644877 36.3524784 -28.64310548 33.93659125 -26.75 30.1875 C-26.28303711 29.27774414 -26.28303711 29.27774414 -25.80664062 28.34960938 C-25.04641416 26.86424381 -24.30274538 25.37042366 -23.5625 23.875 C-24.75875 23.978125 -25.955 24.08125 -27.1875 24.1875 C-30.67809679 24.21855513 -32.39974368 23.6364318 -35.0625 21.375 C-36.3 20.1375 -36.3 20.1375 -37.5625 18.875 C-38.2225 19.535 -38.8825 20.195 -39.5625 20.875 C-38.5725 21.535 -37.5825 22.195 -36.5625 22.875 C-36.5625 23.865 -36.5625 24.855 -36.5625 25.875 C-37.85163487 26.54654933 -39.14390204 27.21208859 -40.4375 27.875 C-41.15679687 28.24625 -41.87609375 28.6175 -42.6171875 29 C-44.5625 29.875 -44.5625 29.875 -46.5625 29.875 C-46.5625 30.865 -46.5625 31.855 -46.5625 32.875 C-43.0975 32.38 -43.0975 32.38 -39.5625 31.875 C-39.5625 32.865 -39.5625 33.855 -39.5625 34.875 C-42.51914519 36.3533226 -45.30479737 35.93532783 -48.5625 35.875 C-49.75 33.75 -49.75 33.75 -50.5625 30.875 C-49.02778377 26.69716138 -46.97118327 23.73389565 -43.5625 20.875 C-42.9025 20.875 -42.2425 20.875 -41.5625 20.875 C-41.2325 19.225 -40.9025 17.575 -40.5625 15.875 C-39.5725 15.545 -38.5825 15.215 -37.5625 14.875 C-37.15 13.658125 -36.7375 12.44125 -36.3125 11.1875 C-34.27218515 5.33859743 -30.56282702 2.36092145 -25.09375 -0.34765625 C-16.68919007 -3.87909032 -7.67187833 -6.36204544 0 0 Z M-32.5625 8.875 C-33.82452373 12.38062148 -33.76880218 14.04979127 -32.875 17.625 C-31.31504215 20.29921346 -30.53910378 21.04816562 -27.5625 21.875 C-24.37727796 21.56696545 -24.37727796 21.56696545 -21.5625 20.875 C-21.2325 19.885 -20.9025 18.895 -20.5625 17.875 C-21.8825 17.215 -23.2025 16.555 -24.5625 15.875 C-24.875 12.625 -24.875 12.625 -24.5625 8.875 C-21.84519895 5.74598667 -19.98235811 4.96910613 -15.9375 4.0625 C-12.5625 3.875 -12.5625 3.875 -9.5625 4.875 C-8.46925389 8.25412433 -8.4689293 9.64107326 -9.8125 13 C-12.25856208 17.01853057 -14.27636055 18.95362714 -18.5625 20.875 C-18.5625 21.535 -18.5625 22.195 -18.5625 22.875 C-13.00835597 22.7361464 -10.14404314 20.3549853 -6.26953125 16.6953125 C-3.48254476 13.72337725 -2.5496337 11.71809787 -2.578125 7.63671875 C-2.74406014 5.27214294 -2.89593744 3.15204929 -3.5625 0.875 C-13.02249288 -5.43166192 -26.02134354 1.08869954 -32.5625 8.875 Z M-22.5625 10.875 C-22.51752158 13.15023089 -22.51752158 13.15023089 -21.5625 14.875 C-18.51336772 15.88611093 -18.51336772 15.88611093 -15.5625 14.875 C-15.2325 15.535 -14.9025 16.195 -14.5625 16.875 C-12.08725424 13.96927672 -10.86579769 11.71677074 -10.5625 7.875 C-12.37667709 5.68526503 -12.37667709 5.68526503 -14.875 5.4375 C-18.75495499 6.06912058 -20.20325097 7.8218542 -22.5625 10.875 Z M47.75 23.375 C47.316875 23.87 46.88375 24.365 46.4375 24.875 C46.7675 25.535 47.0975 26.195 47.4375 26.875 C49.97423288 25.5196674 49.97423288 25.5196674 52.4375 23.875 C52.4375 23.215 52.4375 22.555 52.4375 21.875 C49.43490483 21.54281808 49.43490483 21.54281808 47.75 23.375 Z M-42.5625 22.875 C-44.19926257 24.8350281 -44.19926257 24.8350281 -45.5625 26.875 C-43.9125 26.545 -42.2625 26.215 -40.5625 25.875 C-40.5625 24.885 -40.5625 23.895 -40.5625 22.875 C-41.2225 22.875 -41.8825 22.875 -42.5625 22.875 Z M-4.3125 24.5625 C-5.83131593 26.84547583 -5.83131593 26.84547583 -5.25 29.625 C-5.023125 30.3675 -4.79625 31.11 -4.5625 31.875 C-1.50872345 31.20164981 -1.50872345 31.20164981 -0.375 29.0625 C0.66962435 26.63896971 0.66962435 26.63896971 0.4375 22.875 C-2.60775807 22.52793221 -2.60775807 22.52793221 -4.3125 24.5625 Z M5.4375 22.875 C4.7775 23.968125 4.1175 25.06125 3.4375 26.1875 C3.06625 26.80238281 2.695 27.41726562 2.3125 28.05078125 C1.22126001 29.98861926 1.22126001 29.98861926 1.4375 32.875 C4.55346912 32.20872488 4.55346912 32.20872488 5.60546875 29.80859375 C5.94191406 28.98488281 6.27835938 28.16117188 6.625 27.3125 C6.96917969 26.48621094 7.31335938 25.65992188 7.66796875 24.80859375 C8.04888672 23.85146484 8.04888672 23.85146484 8.4375 22.875 C7.4475 22.875 6.4575 22.875 5.4375 22.875 Z M13.4375 22.875 C10.64141977 26.03186477 8.80548049 28.8850569 7.4375 32.875 C9.40364267 32.72842916 9.40364267 32.72842916 11.4375 31.875 C12.5750213 29.79465706 12.5750213 29.79465706 13.1875 27.3125 C13.42984375 26.48621094 13.6721875 25.65992188 13.921875 24.80859375 C14.09203125 24.17050781 14.2621875 23.53242187 14.4375 22.875 C14.1075 22.875 13.7775 22.875 13.4375 22.875 Z M32.4375 19.875 C31.56866294 21.45033086 30.71790932 23.03564509 29.875 24.625 C29.39933594 25.50671875 28.92367187 26.3884375 28.43359375 27.296875 C27.35751814 30.08201188 27.37221252 31.14480214 28.4375 33.875 C27.1175 33.875 25.7975 33.875 24.4375 33.875 C24.1075 33.215 23.7775 32.555 23.4375 31.875 C23.4375 32.535 23.4375 33.195 23.4375 33.875 C21.4575 33.875 19.4775 33.875 17.4375 33.875 C19.0875 30.245 20.7375 26.615 22.4375 22.875 C18.42817927 24.87966037 17.89621352 25.15476774 16.125 28.875 C15.77824219 29.57625 15.43148437 30.2775 15.07421875 31 C14.86410156 31.61875 14.65398437 32.2375 14.4375 32.875 C14.7675 33.535 15.0975 34.195 15.4375 34.875 C11.8075 34.875 8.1775 34.875 4.4375 34.875 C5.4275 35.865 6.4175 36.855 7.4375 37.875 C8.625 40.0625 8.625 40.0625 9.4375 41.875 C14.15167287 41.61231554 18.86559881 41.34566036 23.5793457 41.07543945 C25.18052191 40.98419744 26.78175866 40.89401112 28.38305664 40.80493164 C30.69434342 40.67616714 33.00538061 40.5435162 35.31640625 40.41015625 C36.02398575 40.37156998 36.73156525 40.3329837 37.46058655 40.29322815 C47.1667376 39.73686773 47.1667376 39.73686773 55.875 35.8125 C57.17244141 34.99072266 57.17244141 34.99072266 58.49609375 34.15234375 C59.13675781 33.73082031 59.77742188 33.30929688 60.4375 32.875 C59.7775 32.545 59.1175 32.215 58.4375 31.875 C58.7675 29.565 59.0975 27.255 59.4375 24.875 C56.78251768 23.8580687 55.74594625 23.74477849 53.078125 24.87109375 C52.28921875 25.34675781 51.5003125 25.82242188 50.6875 26.3125 C49.88828125 26.78558594 49.0890625 27.25867188 48.265625 27.74609375 C47.66234375 28.11863281 47.0590625 28.49117187 46.4375 28.875 C46.9325 30.36 46.9325 30.36 47.4375 31.875 C49.4175 31.545 51.3975 31.215 53.4375 30.875 C52.3125 32.375 52.3125 32.375 50.4375 33.875 C47.25 34.0625 47.25 34.0625 44.4375 33.875 C43.61111624 30.98265685 43.4375 28.98757569 43.4375 25.875 C42.7775 25.875 42.1175 25.875 41.4375 25.875 C41.4375 24.885 41.4375 23.895 41.4375 22.875 C40.4475 22.875 39.4575 22.875 38.4375 22.875 C37.7775 23.9475 37.1175 25.02 36.4375 26.125 C36.06625 26.72828125 35.695 27.3315625 35.3125 27.953125 C34.16125977 30.12979385 34.16125977 30.12979385 34.4375 33.875 C33.1175 33.875 31.7975 33.875 30.4375 33.875 C32.02712659 29.83979403 33.71982318 25.85688718 35.4375 21.875 C34.7775 21.875 34.1175 21.875 33.4375 21.875 C33.1075 21.215 32.7775 20.555 32.4375 19.875 Z M26.4375 22.875 C25.1175 25.185 23.7975 27.495 22.4375 29.875 C23.4275 29.545 24.4175 29.215 25.4375 28.875 C26.66270264 25.86652582 26.66270264 25.86652582 27.4375 22.875 C27.1075 22.875 26.7775 22.875 26.4375 22.875 Z M61.4375 22.875 C61.7675 23.535 62.0975 24.195 62.4375 24.875 C63.4275 24.545 64.4175 24.215 65.4375 23.875 C64.1175 23.545 62.7975 23.215 61.4375 22.875 Z M66.4375 32.875 C65.7775 34.525 65.1175 36.175 64.4375 37.875 C68.91633696 37.42796014 68.91633696 37.42796014 72.4375 34.875 C69.62240007 32.5976499 69.62240007 32.5976499 66.4375 32.875 Z M57.8125 35.875 C56.69875 36.535 55.585 37.195 54.4375 37.875 C57.72726808 38.97158936 59.15053767 38.67453138 62.4375 37.875 C62.7675 36.555 63.0975 35.235 63.4375 33.875 C60.97448577 33.875 59.91686722 34.62796757 57.8125 35.875 Z M49.5 42.625 C48.50888615 44.72382933 47.84485947 46.593787 47.4375 48.875 C50.8444998 49.26437141 52.20118298 49.02888085 55.125 47.125 C57.23988063 45.06727831 58.37128478 43.58900239 59.4375 40.875 C53.98586616 40.22505599 53.98586616 40.22505599 49.5 42.625 Z " fill="#FFFFFF" transform="translate(117.5625,75.125)"/>
<path d="M0 0 C0.66 0.99 1.32 1.98 2 3 C5.05429073 4.21284876 5.05429073 4.21284876 8 5 C7.67 5.66 7.34 6.32 7 7 C2.05 7 -2.9 7 -8 7 C-7.87625 8.216875 -7.7525 9.43375 -7.625 10.6875 C-7.61328125 12.8984375 -7.61328125 12.8984375 -8 15 C-10.8125 17.8125 -10.8125 17.8125 -14 20 C-16.40827556 22.15914361 -16.9411903 22.82357089 -18 26 C-17.22076172 25.24203125 -17.22076172 25.24203125 -16.42578125 24.46875 C-15.72839844 23.8190625 -15.03101563 23.169375 -14.3125 22.5 C-13.28576172 21.52546875 -13.28576172 21.52546875 -12.23828125 20.53125 C-9.55907466 18.69835474 -8.1833468 18.53543198 -5 19 C-2.47519307 21.52480693 -2.44261367 23.13823034 -1.875 26.625 C-1.62363281 28.12933594 -1.62363281 28.12933594 -1.3671875 29.6640625 C-1.24601562 30.43492188 -1.12484375 31.20578125 -1 32 C0.32 32 1.64 32 3 32 C2.505 30.6696875 2.505 30.6696875 2 29.3125 C1.07864193 26.26050138 0.65050298 24.1454732 1 21 C3 19 3 19 4.9453125 18.8046875 C6.96354167 18.86979167 8.98177083 18.93489583 11 19 C10.34 20.98 9.68 22.96 9 25 C8.34 25 7.68 25 7 25 C6.505 23.515 6.505 23.515 6 22 C5.01 22.495 5.01 22.495 4 23 C4.515625 23.53625 5.03125 24.0725 5.5625 24.625 C7 27 7 27 7 30.125 C6 33 6 33 3.8125 34.4375 C0.57265508 35.08546898 -1.80075773 34.74400983 -5 34 C-5 33.01 -5 32.02 -5 31 C-5.721875 31.680625 -6.44375 32.36125 -7.1875 33.0625 C-10 35 -10 35 -12.6875 35.0625 C-15 34 -15 34 -16.3125 31.4375 C-16.6528125 30.2309375 -16.6528125 30.2309375 -17 29 C-20.75511351 30.45540802 -21.94768985 32.1782175 -23.8125 35.6875 C-28.4015316 43.61817057 -33.05959211 48.07238845 -41.5703125 51.56640625 C-44.65375395 52.1166667 -46.24650971 51.40532809 -49 50 C-49.33 49.67 -49.66 49.34 -50 49 C-50 44.24286193 -49.23438042 41.7896199 -45.9375 38.3125 C-40.93824824 33.76124636 -35.70840708 31.45562128 -29.25 29.6875 C-25.71625898 28.60113402 -24.27034164 27.53778317 -22.4375 24.3125 C-21.963125 23.219375 -21.48875 22.12625 -21 21 C-22.32 20.34 -23.64 19.68 -25 19 C-25 19.66 -25 20.32 -25 21 C-25.99 21 -26.98 21 -28 21 C-28.62231535 11.12938711 -28.62231535 11.12938711 -26.3125 6.9375 C-21.26505429 2.708559 -16.08385416 2.6600426 -9.7421875 2.34375 C-5.72682978 1.84040031 -4.30016032 0 0 0 Z M-23 8 C-22.67 8.66 -22.34 9.32 -22 10 C-21.484375 9.690625 -20.96875 9.38125 -20.4375 9.0625 C-18 8 -18 8 -14.3125 7.5 C-13.219375 7.335 -12.12625 7.17 -11 7 C-10.67 6.34 -10.34 5.68 -10 5 C-15.26053037 4.68436818 -18.44573816 5.33409063 -23 8 Z M-24 14 C-23.34 15.32 -22.68 16.64 -22 18 C-20.08533633 17.87822312 -20.08533633 17.87822312 -18 17 C-15.63919803 13.79924022 -15.63919803 13.79924022 -15 10 C-19.68091299 10 -20.62101604 10.99645871 -24 14 Z M-12 11 C-12.66 12.65 -13.32 14.3 -14 16 C-13.34 16 -12.68 16 -12 16 C-11.67 14.35 -11.34 12.7 -11 11 C-11.33 11 -11.66 11 -12 11 Z M-10.5625 22.125 C-12.51767533 24.6752287 -12.73062357 26.83482694 -13 30 C-12.67 30.66 -12.34 31.32 -12 32 C-9.3094472 30.77992056 -9.3094472 30.77992056 -7 29 C-6.92851801 27.64756083 -6.91600546 26.29165633 -6.9375 24.9375 C-6.958125 23.638125 -6.97875 22.33875 -7 21 C-9.05038276 20.80523176 -9.05038276 20.80523176 -10.5625 22.125 Z M-42 38.375 C-44.14382654 41.18877233 -45.12723949 43.58829983 -46 47 C-44.22517003 48.20076527 -44.22517003 48.20076527 -42 49 C-35.20703845 46.95111079 -31.21573219 40.94187194 -28 35 C-27.67 34.01 -27.34 33.02 -27 32 C-32.36253578 32 -37.91747321 35.14299963 -42 38.375 Z " fill="#FFFFFF" transform="translate(58,77)"/>
</svg>
