<?xml version="1.0" encoding="UTF-8"?>
<!DOCTYPE svg PUBLIC "-//W3C//DTD SVG 1.1//EN" "http://www.w3.org/Graphics/SVG/1.1/DTD/svg11.dtd">
<svg xmlns="http://www.w3.org/2000/svg" version="1.1" width="200px" height="156px" style="shape-rendering:geometricPrecision; text-rendering:geometricPrecision; image-rendering:optimizeQuality; fill-rule:evenodd; clip-rule:evenodd" xmlns:xlink="http://www.w3.org/1999/xlink">
<g><path style="opacity:0.471" fill="#fefefe" d="M 91.5,2.5 C 92.4959,2.41423 93.3292,2.74756 94,3.5C 95.6768,6.85345 97.8434,9.85345 100.5,12.5C 98.9775,14.2825 96.9775,14.9492 94.5,14.5C 94.5,13.5 94.5,12.5 94.5,11.5C 93.448,11.3505 92.448,11.5172 91.5,12C 92.3366,13.0113 92.67,14.1779 92.5,15.5C 90.712,15.7852 89.0453,15.4519 87.5,14.5C 89.4432,10.7375 90.7765,6.73748 91.5,2.5 Z"/></g>
<g><path style="opacity:0.43" fill="#fefefe" d="M 111.5,2.5 C 113.96,2.69855 116.293,3.36521 118.5,4.5C 116.234,6.89308 115.568,9.55975 116.5,12.5C 119.494,10.9341 120.494,11.6008 119.5,14.5C 116.337,15.8072 113.337,15.4738 110.5,13.5C 112.547,9.94924 112.881,6.28257 111.5,2.5 Z"/></g>
<g><path style="opacity:0.45" fill="#fffefe" d="M 69.5,11.5 C 70.2998,9.25915 71.9664,8.25915 74.5,8.5C 74.7167,11.4353 75.3834,14.2687 76.5,17C 75.7375,20.8802 73.4042,22.5469 69.5,22C 67.259,19.5197 65.259,16.853 63.5,14C 64.9442,11.9655 66.9442,11.1322 69.5,11.5 Z M 69.5,11.5 C 70.4959,11.4142 71.3292,11.7476 72,12.5C 72.7065,14.0806 73.5399,15.5806 74.5,17C 73.2887,18.5778 71.9554,18.7445 70.5,17.5C 68.826,15.5699 68.4927,13.5699 69.5,11.5 Z"/></g>
<g><path style="opacity:0.449" fill="#fefefe" d="M 134.5,9.5 C 136.757,9.96166 138.757,10.9617 140.5,12.5C 137.493,15.1716 135.493,18.5049 134.5,22.5C 132.668,21.7515 131.001,20.7515 129.5,19.5C 132.755,16.9894 134.422,13.656 134.5,9.5 Z"/></g>
<g><path style="opacity:0.49" fill="#fefefe" d="M 150.5,20.5 C 154.304,22.1314 156.804,24.7981 158,28.5C 156.284,29.5523 155.284,28.8856 155,26.5C 152.684,28.4704 150.851,30.8037 149.5,33.5C 147.069,32.6399 145.736,30.9732 145.5,28.5C 148.439,28.082 150.772,26.582 152.5,24C 149.452,24.8093 148.786,23.6427 150.5,20.5 Z"/></g>
<g><path style="opacity:0.497" fill="#fefefe" d="M 49.5,24.5 C 54.944,23.8008 58.1107,26.1341 59,31.5C 60.1562,30.0072 60.9896,30.1739 61.5,32C 57.2885,39.9784 52.1219,40.4784 46,33.5C 44.9804,29.5532 46.1471,26.5532 49.5,24.5 Z M 49.5,27.5 C 52.4118,27.7888 54.4118,29.2888 55.5,32C 50.4163,34.4087 48.4163,32.9087 49.5,27.5 Z"/></g>
<g><path style="opacity:0.457" fill="#fefefe" d="M 164.5,36.5 C 165.496,36.4142 166.329,36.7476 167,37.5C 167.743,39.4406 167.576,41.2739 166.5,43C 168.619,43.0976 170.286,43.9309 171.5,45.5C 168.553,46.3214 165.553,46.8214 162.5,47C 161.953,47.9246 161.287,48.7579 160.5,49.5C 159.289,48.1255 158.289,46.6255 157.5,45C 161.857,44.4386 164.19,41.6053 164.5,36.5 Z"/></g>
<g><path style="opacity:0.845" fill="#fefefe" d="M 115.5,39.5 C 120.167,39.5 124.833,39.5 129.5,39.5C 129.167,56.18 129.501,72.8467 130.5,89.5C 131.72,90.7111 132.887,90.7111 134,89.5C 133.953,81.1086 135.619,73.1086 139,65.5C 147.54,57.655 155.706,58.155 163.5,67C 167.798,68.4596 170.798,67.1262 172.5,63C 175.584,61.0156 178.584,61.1823 181.5,63.5C 187.333,61.3824 192.333,62.5491 196.5,67C 194.779,69.6194 192.946,72.1194 191,74.5C 188.029,72.8977 185.362,73.231 183,75.5C 182.333,83.5 182.333,91.5 183,99.5C 184.876,104.121 188.042,105.955 192.5,105C 194.525,106.194 194.859,107.694 193.5,109.5C 189.932,111.362 187.765,110.362 187,106.5C 186.692,107.308 186.192,107.975 185.5,108.5C 179.53,105.439 173.196,103.773 166.5,103.5C 166.5,102.167 166.5,100.833 166.5,99.5C 167.822,99.67 168.989,99.3366 170,98.5C 170.231,92.6291 170.731,86.7957 171.5,81C 170.899,78.3628 169.233,77.1961 166.5,77.5C 167.374,86.3592 164.707,93.8592 158.5,100C 152.011,103.585 145.844,103.085 140,98.5C 133.771,101.409 127.771,101.075 122,97.5C 118.362,99.1848 114.529,99.8514 110.5,99.5C 110.564,108.215 106.897,114.715 99.5,119C 93.6218,120.653 88.7885,119.153 85,114.5C 84.4092,113.517 84.7425,112.85 86,112.5C 88.5413,113.664 91.0413,113.497 93.5,112C 97.4439,108.289 99.2772,103.789 99,98.5C 94.6378,100.067 90.6378,99.4004 87,96.5C 81.6546,100.98 75.8212,101.647 69.5,98.5C 63.7425,102.936 57.5758,103.603 51,100.5C 49.2691,102.617 47.1024,104.117 44.5,105C 36.7665,105.356 29.7665,107.689 23.5,112C 21.3927,112.854 20.0593,112.188 19.5,110C 23.0789,107.014 25.2455,103.18 26,98.5C 26.4999,85.1708 26.6666,71.8375 26.5,58.5C 22.2022,59.1995 17.8689,59.5328 13.5,59.5C 13.5,60.8333 13.5,62.1667 13.5,63.5C 18.7812,64.7554 18.6146,65.7554 13,66.5C 5.24466,66.0844 1.91133,62.0844 3,54.5C 3.77385,52.0607 5.27385,50.2273 7.5,49C 26.2711,47.884 44.9378,45.7173 63.5,42.5C 64.2058,50.5971 60.5392,55.0971 52.5,56C 47.5364,56.9122 42.5364,57.4122 37.5,57.5C 37.3335,69.5046 37.5001,81.5046 38,93.5C 39.3957,95.5268 41.0624,95.8602 43,94.5C 42.7341,85.4232 44.4008,76.7565 48,68.5C 50.7783,65.1929 54.2783,63.0262 58.5,62C 63.8627,61.4411 69.196,61.1078 74.5,61C 73.8656,63.0745 73.5323,65.2412 73.5,67.5C 74.0663,74.4951 74.5663,81.4951 75,88.5C 77,89.8333 79,89.8333 81,88.5C 81.6667,81.5 81.6667,74.5 81,67.5C 79.8438,68.9928 79.0104,68.8261 78.5,67C 80.4376,60.5298 84.4376,58.6965 90.5,61.5C 91.5836,62.6651 92.4169,63.9984 93,65.5C 93.3333,72.8333 93.6667,80.1667 94,87.5C 95.3876,88.5536 96.8876,88.7203 98.5,88C 99.4845,78.9172 99.8178,69.7506 99.5,60.5C 103.167,60.5 106.833,60.5 110.5,60.5C 110.334,69.1731 110.5,77.8397 111,86.5C 113.333,89.1667 115.667,89.1667 118,86.5C 118.667,72.8333 118.667,59.1667 118,45.5C 114.702,44.4275 113.868,42.4275 115.5,39.5 Z M 148.5,71.5 C 151.238,70.9648 153.072,71.9648 154,74.5C 154.667,78.8333 154.667,83.1667 154,87.5C 151.667,92.8333 149.333,92.8333 147,87.5C 146.003,81.9504 146.503,76.617 148.5,71.5 Z M 60.5,72.5 C 61.8164,75.0866 62.483,78.0866 62.5,81.5C 62.3333,84.5 62.1667,87.5 62,90.5C 59.67,92.0317 57.67,91.6983 56,89.5C 55.3333,85.5 55.3333,81.5 56,77.5C 57.025,75.313 58.525,73.6464 60.5,72.5 Z"/></g>
<g><path style="opacity:0.44" fill="#fefefe" d="M 152.5,115.5 C 155.165,116.913 157.999,118.246 161,119.5C 162.337,123.526 161.17,126.526 157.5,128.5C 155.739,126.32 153.573,124.654 151,123.5C 150.282,120.593 150.782,117.926 152.5,115.5 Z M 153.5,118.5 C 156.001,118.511 156.168,119.178 154,120.5C 153.536,119.906 153.369,119.239 153.5,118.5 Z M 157.5,122.5 C 158.043,122.56 158.376,122.893 158.5,123.5C 157.635,124.583 156.635,124.749 155.5,124C 156.416,123.722 157.082,123.222 157.5,122.5 Z"/></g>
<g><path style="opacity:0.475" fill="#fefefe" d="M 48.5,117.5 C 53.384,116.557 56.7174,118.39 58.5,123C 57.9407,125.188 56.6073,125.854 54.5,125C 55.6286,121.53 54.2953,120.196 50.5,121C 48.1517,122.688 47.9851,124.522 50,126.5C 50.3076,125.692 50.8076,125.025 51.5,124.5C 56.7669,127.283 56.6003,129.283 51,130.5C 44.7702,127.114 43.9368,122.781 48.5,117.5 Z"/></g>
<g><path style="opacity:0.514" fill="#fefefe" d="M 140.5,127.5 C 143.697,128.112 145.031,130.112 144.5,133.5C 146.484,133.383 148.15,134.05 149.5,135.5C 146.864,137.763 144.03,139.763 141,141.5C 140.174,138.858 138.507,136.191 136,133.5C 135.667,133.833 135.333,134.167 135,134.5C 134.251,133.365 134.417,132.365 135.5,131.5C 137.419,130.388 139.086,129.054 140.5,127.5 Z M 139.5,132.5 C 140.077,131.227 140.743,131.227 141.5,132.5C 141.03,133.463 140.363,133.463 139.5,132.5 Z"/></g>
<g><path style="opacity:0.44" fill="#fefefe" d="M 64.5,130.5 C 67.0449,128.977 69.0449,129.643 70.5,132.5C 66.6867,134.696 66.02,137.363 68.5,140.5C 70.3631,138.107 71.6965,135.44 72.5,132.5C 74.2303,133.026 75.5637,134.026 76.5,135.5C 73.8278,137.673 71.4945,140.173 69.5,143C 64.1339,143.299 61.9672,140.799 63,135.5C 64.8345,133.93 65.3345,132.263 64.5,130.5 Z"/></g>
<g><path style="opacity:0.465" fill="#fefefe" d="M 84.5,137.5 C 86.3792,138.341 88.3792,138.675 90.5,138.5C 89.3838,141.245 88.3838,144.078 87.5,147C 89.0447,148.838 88.7114,150.005 86.5,150.5C 84.8927,150.363 83.5594,149.696 82.5,148.5C 84.6558,144.924 85.3225,141.257 84.5,137.5 Z"/></g>
<g><path style="opacity:0.455" fill="#fefefe" d="M 120.5,137.5 C 121.552,137.351 122.552,137.517 123.5,138C 126.824,140.806 129.491,143.973 131.5,147.5C 129.5,147.833 127.5,148.167 125.5,148.5C 125.875,145.093 124.875,144.593 122.5,147C 124.645,147.743 124.811,148.576 123,149.5C 121.462,150.749 120.295,150.582 119.5,149C 120.394,145.224 120.728,141.39 120.5,137.5 Z"/></g>
<g><path style="opacity:0.437" fill="#fefefe" d="M 99.5,140.5 C 103.167,140.5 106.833,140.5 110.5,140.5C 110.5,141.833 110.5,143.167 110.5,144.5C 108.876,144.64 107.71,143.973 107,142.5C 106.833,143.667 106.667,144.833 106.5,146C 107.091,148.239 107.758,150.406 108.5,152.5C 106.076,152.808 103.743,152.474 101.5,151.5C 102.383,150.452 103.05,149.285 103.5,148C 102.286,145.259 100.952,142.759 99.5,140.5 Z"/></g>
</svg>
